<?xml version="1.0" standalone="no"?>
<!DOCTYPE svg PUBLIC "-//W3C//DTD SVG 20010904//EN"
 "http://www.w3.org/TR/2001/REC-SVG-20010904/DTD/svg10.dtd">
<svg version="1.0" xmlns="http://www.w3.org/2000/svg"
 width="2000.000000pt" height="2000.000000pt" viewBox="0 0 2000.000000 2000.000000"
 preserveAspectRatio="xMidYMid meet">
<metadata>
Created by potrace 1.11, written by Peter Selinger 2001-2013
</metadata>
<g transform="translate(0.000000,2000.000000) scale(0.100000,-0.100000)"
fill="#000000" stroke="none">
<path d="M9657 18873 c-4 -3 -7 -17 -7 -29 0 -25 7 -28 95 -39 105 -13 108
-17 119 -161 3 -39 8 -77 10 -85 3 -8 7 -64 10 -125 3 -62 7 -122 10 -135 19
-82 11 -213 -11 -184 -10 13 -110 96 -198 165 -38 30 -77 60 -85 67 -55 44
-196 144 -315 223 -77 51 -141 97 -143 102 -2 4 -10 8 -18 8 -8 0 -14 4 -14 8
0 4 -36 30 -81 57 -92 56 -130 61 -254 32 -38 -8 -90 -18 -114 -22 -23 -3 -54
-10 -67 -15 -13 -5 -24 -7 -24 -5 0 2 -11 0 -26 -5 -14 -6 -39 -12 -57 -15
-40 -8 -39 -6 -27 -41 l10 -29 93 0 c74 0 98 -4 124 -20 27 -16 51 -55 58 -95
1 -6 18 -83 20 -90 0 -3 5 -27 10 -55 5 -27 9 -52 10 -55 3 -14 19 -108 20
-125 1 -11 6 -36 10 -55 4 -19 9 -45 11 -57 1 -13 6 -42 10 -65 4 -24 7 -46 6
-50 -1 -4 3 -32 9 -64 6 -31 12 -79 13 -106 3 -45 1 -50 -22 -59 -13 -5 -39
-11 -56 -13 -86 -11 -94 -19 -79 -74 4 -18 11 -22 27 -18 177 51 294 71 438
75 23 1 26 5 24 29 -2 15 -4 33 -5 40 -1 11 -21 13 -91 10 -60 -3 -93 -1 -100
7 -9 11 -48 171 -56 228 -2 16 -6 32 -9 37 -2 4 -7 29 -10 56 -3 27 -11 66
-16 88 -6 21 -8 40 -5 43 2 3 1 15 -4 28 -5 13 -12 42 -15 66 -4 24 -8 46 -10
49 -2 3 -6 27 -9 54 -3 26 -9 52 -12 58 -6 9 174 -81 229 -116 131 -82 269
-175 342 -234 6 -4 26 -18 45 -32 19 -13 37 -27 40 -30 3 -3 25 -21 50 -40 25
-19 47 -37 50 -40 3 -3 21 -17 42 -32 20 -15 42 -33 50 -40 7 -7 35 -31 62
-52 27 -22 70 -59 95 -83 44 -42 48 -43 103 -41 l57 3 -4 55 c-2 30 -7 138
-10 240 -6 199 -11 292 -20 410 -8 100 -12 272 -7 288 4 11 82 58 82 49 0 -2
21 1 48 8 36 9 48 17 50 34 3 21 3 21 -246 21 -137 0 -252 -3 -255 -7z"/>
<path d="M10818 18864 c-12 -11 -10 -64 2 -65 6 -1 13 -2 18 -4 4 -1 21 -5 37
-9 94 -23 114 -29 118 -40 8 -20 -4 -177 -24 -319 -5 -38 -7 -73 -3 -78 3 -5
0 -9 -6 -9 -6 0 -8 -5 -5 -10 4 -6 2 -34 -4 -63 -6 -28 -13 -86 -16 -127 -6
-77 -7 -83 -28 -210 -15 -84 -19 -87 -112 -89 -57 -1 -70 -7 -77 -38 -9 -34
12 -44 93 -43 103 1 211 -11 274 -31 17 -5 46 -11 65 -14 19 -2 62 -11 95 -19
33 -8 63 -12 67 -10 5 3 8 18 8 34 0 29 -18 46 -58 55 -24 6 -85 29 -98 37
-11 8 -11 26 1 98 4 22 8 50 9 63 2 12 7 42 11 67 5 25 9 59 10 75 1 17 5 45
9 63 l8 34 56 -5 c52 -5 99 -14 202 -37 19 -4 58 -13 85 -19 28 -5 76 -17 108
-26 31 -8 81 -21 110 -29 83 -22 88 -26 81 -50 -4 -11 -8 -30 -10 -41 -1 -11
-10 -47 -18 -80 -9 -33 -19 -72 -21 -87 -3 -15 -10 -39 -15 -53 -5 -14 -9 -29
-8 -33 2 -4 -3 -22 -11 -40 l-14 -33 -61 6 c-33 4 -67 8 -74 11 -22 7 -49 -14
-54 -40 -6 -28 5 -34 70 -42 49 -6 189 -39 227 -54 17 -7 38 -13 47 -15 9 -2
58 -20 108 -41 119 -48 134 -48 137 -7 3 32 -5 39 -126 110 -11 7 -11 16 3 56
8 26 18 61 21 78 3 18 10 40 16 50 5 11 7 19 5 19 -3 0 1 18 9 40 8 22 12 40
10 40 -3 0 0 11 5 25 5 14 12 36 14 48 2 12 16 61 30 109 15 48 29 95 31 105
3 15 53 198 72 266 3 9 12 18 19 18 8 1 20 2 27 3 6 1 28 -1 47 -6 92 -19 98
-19 113 3 8 11 14 28 13 37 -3 17 -13 20 -131 52 -176 46 -229 62 -359 104
-76 26 -147 46 -156 46 -9 0 -22 -11 -28 -24 -10 -23 -8 -26 64 -60 129 -61
126 -44 54 -344 l-23 -93 -41 7 c-22 3 -44 8 -48 10 -3 2 -30 9 -60 15 -29 6
-62 13 -73 15 -11 2 -49 11 -85 19 -36 8 -80 18 -99 21 -19 3 -45 10 -59 15
-14 5 -27 7 -29 5 -3 -3 -16 -1 -30 5 -13 5 -39 11 -58 13 -72 9 -77 14 -71
62 3 24 7 48 9 52 3 4 8 36 11 71 4 35 8 67 10 70 2 3 7 35 11 71 4 36 9 69
12 74 3 5 50 6 104 3 82 -5 98 -4 103 9 9 24 7 54 -4 55 -5 1 -13 2 -17 3 -12
3 -120 16 -183 21 -30 3 -62 8 -70 10 -8 3 -34 7 -57 10 -23 3 -53 9 -66 14
-14 6 -27 8 -30 5 -2 -2 -16 0 -30 5 -14 6 -45 12 -69 15 -24 3 -65 8 -93 12
-27 3 -53 2 -57 -2z"/>
<path d="M8243 18665 c-51 -18 -93 -31 -93 -29 0 3 -9 0 -20 -6 -11 -6 -61
-22 -112 -35 -51 -13 -127 -34 -168 -46 -41 -11 -85 -23 -98 -26 -13 -3 -26
-11 -28 -17 -6 -17 12 -71 23 -69 6 1 22 4 37 7 14 2 29 7 34 9 4 3 26 8 49
12 40 5 43 4 58 -26 9 -17 18 -38 21 -47 2 -10 11 -42 19 -72 9 -30 41 -154
72 -275 30 -121 59 -225 64 -231 5 -6 7 -13 4 -16 -3 -3 5 -36 18 -74 36 -108
25 -128 -101 -203 -11 -6 -11 -13 0 -39 13 -30 14 -31 43 -18 89 40 126 55
185 74 84 26 183 49 240 57 25 3 57 11 72 16 24 10 26 14 17 37 -5 15 -11 32
-14 38 -2 9 -17 9 -57 0 -100 -23 -100 -23 -126 79 -13 50 -25 99 -27 110 -10
45 -16 71 -20 93 -2 13 -7 32 -10 42 -3 10 -8 27 -10 37 -2 10 -16 70 -31 133
-14 63 -27 122 -28 130 -5 36 -19 96 -27 111 -10 20 -21 66 -23 99 -1 22 9 30
74 62 41 21 79 39 84 41 12 4 -5 70 -19 73 -6 1 -52 -13 -102 -31z"/>
<path d="M12818 18250 c-42 -7 -166 -56 -178 -70 -3 -3 -18 -16 -35 -28 -51
-40 -125 -148 -141 -207 -29 -106 -35 -148 -31 -225 5 -87 13 -135 25 -154 3
-6 7 -17 8 -24 2 -7 22 -48 46 -90 85 -152 240 -273 463 -363 131 -53 307 -71
416 -43 96 25 199 82 264 148 142 143 178 347 98 548 -68 172 -227 327 -442
432 -39 19 -71 32 -71 30 0 -3 -13 2 -30 11 -16 9 -30 13 -30 10 0 -3 -8 -1
-18 4 -11 6 -32 13 -48 16 -49 11 -246 14 -296 5z m397 -134 c122 -45 221
-130 276 -236 31 -60 34 -216 5 -300 -69 -201 -175 -344 -296 -397 -60 -27
-177 -21 -260 13 -79 32 -161 108 -194 178 -33 71 -42 198 -21 306 2 14 7 39
11 55 8 41 40 127 65 177 63 123 157 204 254 218 42 6 126 -2 160 -14z"/>
<path d="M4310 18173 c-203 -70 -374 -149 -535 -246 -55 -34 -104 -65 -110
-69 -5 -4 -59 -44 -120 -89 -107 -79 -382 -345 -470 -454 -151 -188 -336 -478
-442 -695 -66 -135 -133 -280 -133 -289 0 -4 -10 -27 -22 -52 -12 -24 -23 -46
-23 -49 -2 -6 -9 -24 -52 -135 -19 -49 -41 -110 -49 -135 -8 -25 -19 -54 -24
-65 -24 -56 -22 -57 33 -27 89 49 325 207 347 232 3 3 48 39 100 80 52 41 102
81 110 90 8 8 44 39 80 69 36 30 70 59 75 65 6 6 48 45 95 86 46 41 100 91
120 110 20 19 79 74 132 122 135 124 331 320 408 408 36 41 68 77 71 80 3 3
29 37 57 75 28 39 55 75 60 80 19 24 82 127 116 190 20 37 41 74 47 81 6 8 9
14 5 14 -4 0 2 17 13 38 44 86 117 334 127 431 2 24 7 48 10 52 6 10 -3 10
-26 2z"/>
<path d="M15674 18124 c9 -85 52 -234 98 -349 23 -55 44 -104 48 -110 4 -5 22
-37 40 -70 34 -62 134 -217 154 -238 6 -7 27 -32 46 -57 146 -187 783 -822
1010 -1006 19 -16 37 -31 40 -34 3 -3 30 -25 60 -50 30 -25 57 -47 60 -50 3
-3 50 -39 105 -80 55 -41 103 -79 107 -85 4 -5 8 -7 8 -3 0 4 9 0 20 -10 39
-33 215 -140 218 -132 2 4 -15 61 -38 126 -23 66 -42 124 -44 129 -1 6 -8 21
-13 35 -6 14 -26 63 -44 110 -17 47 -36 89 -41 95 -4 5 -8 14 -8 21 0 22 -128
291 -194 409 -22 39 -44 79 -50 90 -23 42 -111 181 -123 193 -7 7 -13 17 -13
22 0 5 -6 15 -13 22 -7 7 -34 43 -60 80 -26 36 -53 72 -60 80 -7 7 -28 33 -47
58 -44 58 -309 325 -363 367 -23 18 -58 46 -77 63 -19 16 -38 30 -41 30 -3 0
-18 10 -32 23 -71 60 -379 235 -512 289 -57 24 -196 75 -224 83 -24 7 -24 7
-17 -51z"/>
<path d="M6885 18153 c-17 -4 -78 -25 -150 -53 -233 -89 -386 -266 -380 -440
4 -101 63 -188 161 -235 42 -20 63 -24 144 -23 52 1 112 5 133 10 20 4 54 11
75 14 20 3 40 8 43 9 23 15 198 24 254 14 9 -1 29 -17 45 -36 57 -65 35 -172
-52 -247 -65 -56 -86 -68 -153 -85 -83 -22 -158 -4 -248 58 l-46 32 -41 -26
c-46 -29 -49 -15 32 -152 38 -64 54 -83 71 -83 75 0 327 99 397 156 73 60 96
83 133 138 54 81 74 138 72 211 -3 130 -58 226 -157 273 -56 28 -71 30 -158
30 -52 -1 -108 -5 -125 -10 -16 -4 -42 -11 -58 -13 -15 -3 -58 -11 -95 -19
-139 -28 -215 -15 -251 45 -23 37 -21 79 4 130 18 37 82 99 102 99 7 0 13 4
13 9 0 15 95 39 147 36 53 -3 102 -26 168 -79 l30 -24 43 20 c23 11 42 25 42
30 0 6 -11 31 -24 57 -82 160 -94 171 -171 154z"/>
<path d="M2615 17738 c-16 -12 -32 -25 -35 -28 -3 -3 -30 -25 -60 -50 -122
-100 -314 -313 -360 -400 -7 -14 -16 -27 -20 -30 -21 -15 -210 -361 -210 -384
0 -3 -9 -25 -19 -49 -52 -117 -134 -367 -162 -492 -4 -22 -10 -49 -13 -60 -22
-103 -38 -187 -42 -220 -3 -22 -7 -47 -9 -55 -3 -8 -7 -42 -10 -75 -3 -33 -8
-67 -10 -75 -3 -9 -7 -54 -10 -100 -3 -47 -9 -132 -13 -190 -9 -130 -8 -366 3
-525 5 -66 9 -133 10 -150 1 -16 5 -64 10 -105 5 -41 9 -82 10 -90 4 -44 18
-120 22 -120 3 0 38 17 77 39 39 21 103 55 141 76 39 21 87 49 107 62 21 12
39 23 42 23 14 0 370 234 448 294 15 12 48 37 74 56 70 53 113 88 239 194 89
76 355 340 427 425 35 41 68 79 73 85 26 27 163 203 173 223 7 12 18 27 25 35
30 30 227 340 227 357 0 5 3 11 8 13 8 4 23 31 110 201 35 70 63 130 60 132
-7 7 -251 -119 -348 -180 -168 -105 -430 -288 -450 -314 -3 -3 -23 -19 -45
-35 -22 -16 -44 -34 -50 -40 -5 -6 -35 -31 -65 -56 -30 -25 -57 -47 -60 -50
-3 -3 -48 -44 -100 -90 -142 -126 -312 -292 -614 -602 -42 -43 -79 -78 -82
-78 -4 0 -4 91 -1 203 7 205 9 245 23 320 4 23 8 47 9 52 0 6 5 30 10 55 5 25
8 48 7 52 -1 4 5 23 13 42 9 20 15 38 14 41 -2 17 62 235 88 295 3 8 7 20 8
25 4 15 84 214 106 262 10 23 19 45 19 48 0 4 7 22 15 41 8 19 22 50 31 70 34
76 148 402 159 454 1 8 8 33 14 55 14 55 40 182 46 230 3 22 9 65 14 95 10 60
2 94 -24 104 -20 7 -15 9 -50 -16z"/>
<path d="M17335 17749 c-4 -5 -4 -26 -1 -47 3 -20 9 -68 12 -107 3 -38 7 -72
9 -75 2 -3 6 -26 10 -50 10 -73 62 -270 100 -382 19 -56 36 -107 38 -113 2 -5
9 -20 15 -32 7 -13 11 -23 8 -23 -5 0 8 -34 39 -105 7 -16 34 -84 59 -150 26
-66 53 -133 60 -150 27 -59 122 -330 131 -374 2 -9 8 -28 14 -43 6 -16 8 -28
6 -28 -3 0 2 -16 10 -37 8 -20 13 -38 11 -41 -3 -2 -1 -14 4 -27 5 -13 11 -43
15 -66 3 -24 8 -51 10 -59 2 -8 7 -40 10 -70 3 -30 9 -64 12 -75 8 -28 11
-405 3 -405 -4 0 -47 44 -96 98 -49 53 -193 201 -319 327 -193 192 -272 268
-399 380 -22 19 -121 102 -177 148 -71 57 -289 210 -349 245 -25 14 -48 31
-52 37 -4 5 -8 6 -8 2 0 -5 -12 0 -27 11 -57 40 -344 182 -369 182 -2 0 0 -8
5 -17 5 -10 27 -54 49 -98 59 -119 103 -199 167 -305 55 -91 197 -302 219
-327 6 -6 36 -44 66 -84 30 -39 64 -82 75 -95 11 -12 40 -47 65 -76 65 -77
364 -375 440 -439 35 -30 71 -60 78 -67 8 -7 30 -25 50 -40 20 -15 44 -34 53
-42 37 -34 182 -140 329 -240 167 -113 612 -361 625 -348 2 2 7 49 10 103 4
55 8 102 11 106 6 11 19 353 19 519 0 161 -12 478 -19 488 -2 4 -7 45 -11 92
-4 47 -9 88 -11 91 -2 4 -6 31 -9 60 -3 30 -8 61 -10 69 -3 8 -7 35 -10 59 -3
24 -7 47 -9 50 -3 4 -7 25 -11 49 -17 115 -104 409 -165 557 -28 68 -138 287
-162 322 -15 23 -28 44 -28 47 0 10 -93 140 -109 153 -9 7 -13 13 -8 13 23 1
-231 262 -318 326 -22 16 -42 32 -45 36 -16 21 -110 76 -115 67z"/>
<path d="M14136 17612 c-14 -27 -13 -29 20 -51 19 -13 34 -28 34 -33 0 -5 3
-7 8 -5 4 2 19 -10 34 -27 l26 -32 -62 -104 c-60 -102 -152 -248 -262 -417
-30 -46 -54 -87 -54 -93 0 -5 -4 -10 -10 -10 -5 0 -10 -5 -10 -10 0 -6 -16
-35 -36 -65 -40 -60 -36 -60 -132 -11 -26 13 -53 21 -59 18 -17 -11 -28 -62
-13 -62 6 0 26 -10 43 -22 18 -13 47 -31 64 -41 36 -19 175 -116 183 -127 3
-4 48 -44 99 -89 94 -81 95 -81 114 -62 27 27 17 55 -39 116 -61 66 -67 83
-41 120 12 17 24 32 27 35 7 6 94 140 132 204 15 25 32 46 37 46 14 0 94 -69
113 -98 23 -36 18 -121 -28 -476 l-19 -139 35 -25 c19 -14 89 -81 156 -148
121 -123 121 -124 134 -99 12 23 10 32 -19 90 -32 64 -33 66 -27 172 3 59 8
190 12 291 4 100 9 182 11 182 2 0 11 -4 21 -10 27 -15 112 -41 155 -47 81
-11 164 34 204 111 11 22 14 51 11 115 -9 199 -120 336 -470 577 -62 43 -140
99 -173 125 -68 53 -184 129 -196 129 -5 0 -15 -13 -23 -28z m461 -381 c38
-33 85 -83 104 -112 29 -46 34 -62 34 -114 0 -97 -50 -175 -127 -196 -31 -8
-50 -7 -91 7 -29 9 -59 23 -68 30 -8 8 -20 14 -26 14 -5 0 -23 11 -39 25 -16
14 -44 35 -61 48 -39 26 -41 40 -10 77 12 15 28 36 34 46 7 10 27 39 44 64 17
25 49 73 71 108 22 34 46 62 52 62 7 0 44 -27 83 -59z"/>
<path d="M5929 17516 c-2 -2 -19 -6 -38 -9 -33 -6 -142 -46 -151 -56 -3 -3
-17 -12 -32 -20 -24 -12 -245 -184 -258 -201 -3 -3 -50 -46 -105 -95 -55 -50
-147 -135 -204 -191 -97 -95 -102 -102 -90 -122 17 -27 34 -28 62 -1 26 24
107 79 117 79 11 0 144 -156 275 -323 72 -92 84 -107 172 -223 29 -38 56 -73
60 -79 5 -5 14 -23 21 -38 13 -31 9 -40 -61 -129 l-29 -37 20 -28 21 -29 118
113 c65 63 141 136 168 162 28 26 88 76 135 111 104 79 265 235 281 272 6 16
15 28 20 28 5 0 8 3 7 8 -1 4 6 25 16 47 24 52 31 190 12 227 -8 15 -12 29
-10 31 3 3 -17 27 -44 55 -74 76 -130 85 -280 47 -29 -8 -57 -17 -62 -20 -16
-10 -12 0 31 70 43 72 48 84 55 157 9 87 -53 166 -146 187 -48 11 -74 13 -81
7z m-104 -216 c85 -32 126 -161 80 -250 -18 -36 -141 -162 -193 -199 l-31 -22
-30 43 c-17 24 -34 48 -38 53 -5 6 -33 44 -63 85 -30 41 -63 81 -72 88 -28 20
-22 35 35 83 131 111 231 150 312 119z m286 -362 c35 -8 89 -60 114 -112 38
-79 40 -129 5 -202 -44 -91 -195 -224 -238 -209 -9 3 -39 37 -67 75 -27 39
-54 70 -59 70 -5 0 -7 3 -3 6 3 3 -1 13 -8 22 -8 10 -39 53 -71 97 l-56 79 34
31 c76 66 140 110 203 137 36 16 88 18 146 6z"/>
<path d="M9655 17089 c-38 -4 -110 -10 -160 -14 -49 -4 -92 -8 -95 -10 -3 -2
-37 -6 -75 -10 -39 -3 -77 -8 -85 -10 -8 -2 -35 -7 -60 -10 -25 -3 -83 -13
-130 -22 -47 -8 -96 -17 -110 -19 -14 -3 -32 -7 -40 -9 -8 -2 -30 -7 -49 -10
-19 -3 -37 -8 -41 -10 -4 -2 -22 -7 -41 -10 -19 -3 -42 -8 -51 -11 -9 -3 -25
-6 -35 -8 -45 -9 -304 -86 -322 -96 -12 -6 -21 -9 -21 -6 0 2 -24 -5 -52 -15
-29 -11 -60 -22 -68 -24 -22 -5 -150 -54 -187 -70 -17 -8 -35 -15 -40 -15 -4
0 -19 -6 -33 -13 -14 -7 -52 -24 -85 -37 -84 -34 -401 -192 -492 -246 -41 -24
-77 -44 -80 -44 -4 0 -21 -11 -40 -26 -18 -14 -33 -21 -33 -17 0 4 -4 4 -8 -2
-7 -11 -15 -16 -102 -67 -30 -17 -61 -38 -68 -45 -7 -7 -17 -13 -22 -13 -5 0
-15 -6 -22 -12 -7 -7 -33 -26 -58 -43 -74 -49 -253 -177 -286 -204 -17 -14
-60 -48 -95 -76 -63 -49 -160 -130 -229 -189 -19 -17 -116 -112 -215 -211
-198 -197 -326 -344 -476 -545 -75 -101 -229 -329 -229 -340 0 -4 -3 -10 -8
-12 -12 -5 -156 -249 -199 -338 -9 -19 -20 -37 -23 -40 -6 -5 -133 -262 -168
-340 -11 -25 -34 -76 -52 -115 -137 -302 -294 -782 -335 -1024 -3 -19 -8 -37
-10 -40 -2 -4 -6 -26 -10 -51 -4 -25 -8 -47 -11 -51 -2 -4 -6 -28 -9 -55 -4
-26 -8 -50 -10 -54 -3 -5 -20 -115 -31 -200 -1 -13 -6 -47 -10 -75 -4 -27 -8
-61 -9 -75 -1 -14 -6 -56 -10 -95 -5 -38 -9 -88 -10 -110 -1 -22 -5 -96 -9
-165 -15 -236 -13 -409 8 -740 3 -47 8 -101 11 -120 3 -19 7 -55 9 -81 3 -25
7 -61 10 -80 4 -18 8 -50 10 -69 3 -20 7 -47 10 -60 3 -14 8 -43 11 -65 3 -22
7 -47 10 -55 2 -8 6 -31 9 -51 3 -20 10 -48 15 -62 5 -14 8 -27 5 -30 -2 -2 0
-15 5 -29 5 -14 12 -40 15 -59 3 -19 17 -74 32 -124 14 -49 27 -97 29 -105 7
-31 85 -259 133 -390 46 -122 76 -195 141 -345 36 -82 213 -437 236 -475 12
-19 37 -62 55 -95 66 -121 331 -522 360 -545 3 -3 17 -21 30 -40 13 -19 27
-37 30 -40 3 -3 17 -21 32 -42 15 -20 33 -42 41 -50 7 -7 22 -25 33 -40 22
-28 111 -131 179 -207 132 -147 437 -436 554 -526 14 -10 28 -22 31 -25 3 -3
43 -35 90 -70 47 -36 87 -67 90 -70 3 -3 21 -17 40 -30 19 -13 41 -30 48 -37
7 -7 17 -13 22 -13 5 0 15 -6 22 -13 35 -35 344 -227 513 -319 194 -106 613
-298 650 -298 7 0 17 -4 20 -10 3 -5 27 -16 53 -24 26 -8 88 -29 137 -46 142
-50 448 -142 517 -155 11 -3 59 -14 107 -25 86 -21 119 -28 156 -36 47 -10
183 -34 220 -40 22 -3 43 -8 46 -10 3 -2 35 -6 70 -10 35 -3 67 -8 70 -10 4
-2 42 -7 85 -10 44 -3 82 -8 85 -10 12 -7 311 -19 484 -19 181 0 482 12 494
19 4 3 47 7 96 11 49 3 92 8 96 11 4 2 31 6 61 9 29 2 94 11 143 20 50 9 104
18 120 21 17 2 41 6 55 9 14 3 36 7 50 10 14 3 39 8 55 12 17 4 32 7 35 8 3 1
19 4 35 8 17 4 39 9 51 11 36 7 158 37 184 46 14 4 45 13 70 20 67 18 153 45
270 85 58 20 110 37 115 38 6 2 15 5 20 8 8 5 75 29 95 34 3 1 22 9 42 18 21
10 39 17 41 17 3 0 26 10 53 22 27 12 51 23 54 23 34 7 469 224 490 245 3 3
25 16 50 29 25 13 64 37 87 53 23 15 44 28 48 28 3 0 11 5 18 10 7 6 68 47
137 93 155 103 385 270 410 297 3 3 17 15 32 26 210 161 562 507 757 744 34
41 73 87 86 103 13 15 20 27 17 27 -4 0 -2 4 5 8 6 4 54 66 107 137 53 72 99
135 103 140 52 68 233 359 233 374 0 6 4 11 9 11 5 0 11 8 15 18 3 9 15 33 27
52 29 48 84 151 156 295 82 163 104 210 198 430 33 76 85 216 85 228 0 6 6 24
14 38 12 23 27 71 26 84 0 3 7 19 15 35 9 17 13 30 10 30 -3 0 1 14 10 30 9
16 13 30 11 30 -3 0 -1 12 5 28 6 15 12 34 14 42 2 8 10 40 19 71 9 31 19 65
21 75 2 11 11 46 19 80 8 34 17 72 20 85 3 13 12 55 20 92 8 38 18 87 21 110
3 23 9 51 12 62 3 11 7 29 8 40 1 11 5 43 9 70 4 28 9 66 12 85 2 19 6 49 9
65 5 29 7 57 22 213 10 101 9 674 0 777 -5 44 -10 109 -13 145 -2 36 -6 72 -9
80 -2 8 -7 42 -10 75 -3 33 -8 71 -10 85 -3 14 -7 43 -11 65 -3 22 -7 47 -10
56 -2 9 -7 32 -9 50 -3 28 -26 142 -61 309 -3 14 -16 68 -30 120 -13 52 -27
103 -29 113 -2 10 -7 28 -11 40 -4 12 -8 29 -10 37 -1 8 -19 67 -40 130 -21
63 -38 117 -39 120 0 5 -17 52 -57 160 -11 30 -29 74 -39 97 -11 24 -19 49
-19 56 0 7 -4 17 -8 23 -5 5 -15 25 -22 44 -35 92 -192 417 -266 550 -106 191
-299 490 -401 620 -7 8 -33 44 -60 80 -26 36 -50 67 -53 70 -3 3 -25 30 -50
60 -25 30 -51 62 -60 70 -8 8 -40 44 -70 80 -69 83 -382 396 -480 480 -41 36
-77 67 -80 70 -3 3 -27 24 -55 45 -27 22 -54 45 -60 51 -41 47 -518 382 -640
450 -11 6 -65 37 -120 69 -55 32 -165 91 -245 131 -132 66 -178 88 -277 130
-18 8 -48 20 -65 28 -18 8 -76 31 -128 51 -52 20 -104 41 -115 45 -21 9 -243
83 -260 86 -5 2 -48 14 -95 28 -47 15 -94 28 -105 30 -11 2 -49 12 -85 21 -36
9 -75 19 -87 21 -12 2 -33 8 -47 14 -13 5 -26 7 -29 4 -2 -2 -17 0 -32 6 -15
6 -43 12 -62 15 -20 2 -43 7 -52 9 -9 3 -36 8 -61 11 -24 4 -47 8 -50 10 -3 2
-32 6 -64 10 -33 3 -62 8 -65 10 -4 2 -40 6 -81 10 -41 4 -78 9 -81 11 -3 2
-46 6 -94 9 -48 3 -93 9 -99 12 -15 10 -823 11 -911 2z m315 -859 l0 -330 -32
-1 c-117 -4 -171 -7 -233 -13 -134 -14 -150 -16 -185 -21 -19 -3 -53 -7 -75
-10 -22 -2 -53 -8 -70 -11 -16 -4 -41 -8 -55 -9 -14 -1 -61 -10 -105 -19 -44
-9 -89 -18 -100 -20 -11 -2 -58 -13 -105 -25 -81 -20 -130 -34 -287 -82 -38
-11 -75 -22 -84 -24 -9 -2 -25 -8 -35 -13 -11 -6 -46 -20 -79 -32 -202 -74
-485 -211 -685 -332 -98 -59 -99 -60 -169 -107 -98 -66 -125 -85 -131 -91 -3
-3 -41 -32 -85 -64 -67 -50 -176 -137 -195 -156 -3 -3 -41 -36 -85 -74 -44
-39 -85 -75 -90 -82 -8 -9 -70 47 -240 217 l-230 230 45 42 c128 118 230 208
299 263 13 10 38 30 55 44 151 124 574 410 605 410 6 0 11 5 11 12 0 6 3 8 6
5 4 -4 19 2 33 12 14 10 69 39 121 66 52 26 100 51 105 54 6 4 33 17 61 29 27
11 84 36 125 55 41 18 90 39 109 46 36 13 64 24 103 40 32 14 72 25 73 20 0
-2 7 1 15 8 11 9 239 84 299 98 8 2 62 16 120 30 58 15 113 28 123 30 10 3 26
6 35 9 9 3 34 7 56 11 21 3 41 7 45 10 4 2 29 6 55 10 27 3 51 7 55 9 3 2 30
7 60 10 29 4 56 8 60 10 3 2 35 7 71 11 35 3 67 8 70 10 3 2 43 6 90 10 47 4
87 8 90 10 3 2 64 6 135 10 72 4 132 9 134 11 2 2 24 4 48 4 l43 0 0 -330z
m519 314 c52 -3 98 -7 101 -9 4 -2 42 -7 85 -10 44 -4 82 -8 85 -10 4 -2 35
-7 70 -10 35 -3 66 -8 69 -10 3 -1 31 -6 61 -10 30 -4 58 -9 62 -12 5 -2 26
-6 48 -9 23 -3 53 -9 67 -15 14 -5 28 -7 30 -5 3 3 16 1 29 -4 14 -6 35 -12
47 -14 12 -2 51 -12 87 -21 36 -9 75 -19 87 -21 12 -2 34 -9 48 -14 14 -5 25
-7 25 -4 0 2 9 0 21 -6 11 -7 31 -13 43 -16 12 -2 62 -18 111 -35 50 -17 101
-33 115 -36 14 -3 30 -10 36 -15 7 -5 22 -11 33 -13 12 -2 36 -11 53 -20 17
-8 35 -15 40 -15 4 0 30 -10 56 -21 26 -12 61 -27 77 -34 17 -7 53 -23 80 -36
28 -13 52 -23 55 -24 20 -4 287 -146 415 -220 82 -48 341 -216 380 -246 5 -5
73 -57 150 -116 145 -111 334 -270 371 -313 l22 -25 -32 -39 c-69 -89 -376
-386 -397 -386 -6 0 -21 64 -20 85 0 2 -5 19 -10 37 -5 18 -12 45 -14 61 -15
81 -74 213 -116 262 -17 19 -53 42 -87 55 -76 29 -137 60 -165 85 -137 123
-245 174 -363 170 -81 -3 -124 -19 -164 -60 -19 -19 -39 -35 -45 -35 -7 0 -69
27 -139 60 -70 33 -162 74 -204 91 -42 17 -81 34 -87 37 -5 4 -12 7 -15 7 -6
1 -159 54 -185 65 -46 20 -352 108 -400 116 -16 3 -55 11 -85 19 -55 13 -126
28 -145 30 -5 1 -30 5 -55 10 -25 4 -55 9 -67 11 -13 1 -41 5 -62 9 -22 4 -57
8 -78 10 -21 1 -69 6 -108 11 -68 7 -125 11 -234 13 -63 1 -63 3 2 97 l42 62
325 5 c179 2 339 8 355 11 17 4 50 12 75 17 82 18 157 58 171 91 19 45 -7 91
-71 123 -49 25 -54 25 -213 21 -231 -6 -361 -41 -627 -169 -47 -23 -92 -42
-100 -44 -13 -2 -15 28 -15 223 l0 226 90 -6 c49 -4 132 -9 184 -12z m-519
-1284 l0 -400 -32 -2 c-106 -4 -251 -22 -373 -44 -44 -8 -91 -16 -105 -18 -78
-10 -351 -84 -465 -126 -33 -12 -64 -22 -70 -24 -5 -1 -19 -7 -30 -13 -11 -6
-22 -11 -25 -11 -7 -1 -45 -16 -105 -42 -27 -12 -66 -28 -85 -37 -19 -8 -43
-19 -52 -24 -120 -63 -200 -106 -230 -126 -21 -12 -40 -23 -42 -23 -9 0 -247
-160 -319 -215 -114 -87 -180 -138 -217 -173 l-25 -23 -18 23 c-104 131 -373
401 -502 505 l-40 32 35 33 c19 18 64 58 100 88 36 30 67 57 70 60 3 3 28 24
55 45 28 22 52 42 55 45 3 3 21 17 40 30 19 14 44 32 54 42 11 10 23 18 27 18
4 0 14 6 22 14 17 17 254 176 263 176 3 0 18 8 32 19 58 41 281 156 446 231
82 37 354 139 386 145 3 1 32 9 65 19 33 10 67 20 75 22 8 2 40 10 70 19 30 8
71 18 90 21 19 3 42 10 51 15 9 4 18 6 21 4 2 -3 19 0 38 5 34 10 96 21 140
26 14 1 25 3 25 4 0 1 9 3 20 4 11 2 38 6 60 10 81 13 172 23 305 32 47 3 87
8 89 10 2 2 26 4 53 4 l48 0 0 -400z m475 384 c33 -2 78 -7 100 -9 22 -3 63
-8 90 -10 28 -3 59 -7 71 -10 12 -2 39 -7 60 -10 21 -3 50 -8 64 -11 13 -3 40
-7 60 -10 19 -2 43 -7 52 -10 10 -3 29 -7 42 -10 50 -9 225 -56 321 -86 55
-18 102 -33 105 -33 3 -1 14 -5 25 -9 11 -4 31 -12 45 -17 14 -5 39 -14 55
-20 17 -7 32 -13 35 -14 7 -2 61 -24 80 -32 8 -3 17 -7 20 -8 59 -20 369 -175
377 -189 4 -6 9 -18 10 -28 1 -9 14 -51 29 -95 14 -43 27 -86 29 -95 2 -9 8
-25 14 -36 15 -28 80 -251 86 -297 15 -108 21 -177 14 -181 -18 -11 -60 20
-108 79 -66 84 -112 123 -152 132 -53 12 -60 -7 -56 -167 4 -136 -1 -155 -29
-129 -32 29 -410 217 -534 266 -131 51 -204 79 -210 80 -3 1 -32 9 -65 20 -74
23 -57 18 -200 54 -124 32 -313 68 -400 76 -27 3 -66 8 -85 11 -19 3 -63 8
-98 10 -35 2 -66 6 -70 8 -6 3 -8 728 -3 785 1 11 17 12 84 7 45 -4 109 -9
142 -12z m-3778 -875 l220 -216 -24 -29 c-13 -16 -34 -40 -46 -54 -12 -14 -35
-44 -51 -65 -17 -22 -33 -42 -36 -45 -3 -3 -38 -50 -78 -105 -40 -55 -79 -107
-86 -116 -24 -29 -202 -304 -246 -379 -24 -41 -55 -95 -70 -120 -51 -87 -199
-394 -197 -410 0 -3 -6 -16 -13 -30 -8 -14 -15 -27 -16 -30 0 -3 -9 -23 -19
-45 -9 -22 -18 -44 -19 -50 -1 -5 -8 -20 -14 -32 -7 -13 -10 -23 -7 -23 3 0 0
-10 -7 -22 -6 -13 -13 -27 -14 -33 -1 -5 -14 -46 -29 -90 -15 -44 -28 -86 -30
-95 -2 -8 -8 -27 -14 -42 -6 -16 -8 -28 -5 -28 2 0 0 -10 -7 -21 -6 -12 -13
-31 -14 -43 -2 -11 -11 -48 -20 -81 -10 -33 -19 -69 -21 -80 -2 -11 -8 -40
-13 -65 -48 -235 -69 -385 -97 -702 l-7 -78 -315 0 -314 0 5 180 c3 99 8 184
11 188 3 5 7 48 10 96 3 48 7 90 10 94 2 4 7 38 11 76 3 38 8 72 10 76 2 3 6
28 10 54 3 27 12 81 20 120 8 39 17 85 20 101 2 17 19 84 35 150 17 66 33 129
35 140 3 11 21 70 41 130 19 61 37 118 39 127 2 9 9 27 16 40 7 13 11 23 10
23 -2 0 2 11 7 25 6 14 29 75 52 135 45 118 247 538 261 543 5 2 9 8 9 12 0
36 388 616 467 698 8 8 26 30 41 50 15 21 34 44 42 52 9 8 26 29 39 45 12 17
48 59 79 94 32 35 63 73 70 83 8 11 20 18 27 16 7 -2 112 -100 232 -219z
m7104 167 c30 -29 72 -73 94 -98 86 -97 151 -172 164 -192 8 -12 18 -23 21
-26 4 -3 44 -54 89 -115 100 -133 103 -138 116 -157 6 -8 29 -43 53 -76 23
-34 42 -65 42 -71 0 -5 4 -11 8 -13 26 -11 268 -460 345 -638 38 -91 71 -171
73 -180 0 -3 6 -18 13 -35 42 -100 147 -432 167 -524 3 -14 7 -28 9 -31 2 -4
7 -22 10 -41 3 -19 10 -50 15 -69 9 -33 34 -155 44 -210 2 -14 7 -36 10 -50 3
-14 8 -43 11 -64 3 -21 7 -48 10 -60 2 -12 7 -43 10 -71 3 -27 8 -59 10 -70 3
-11 7 -45 10 -75 3 -30 8 -73 11 -95 3 -22 7 -60 8 -85 2 -25 7 -91 11 -147
l8 -103 -339 0 -339 0 0 88 c0 129 -8 292 -16 337 -4 22 -9 65 -13 96 -3 30
-7 62 -10 70 -3 8 -7 32 -10 54 -2 22 -7 47 -10 55 -3 8 -7 27 -10 41 -16 98
-69 284 -143 509 -25 74 -47 142 -49 150 -2 8 -16 52 -32 98 -17 45 -28 82
-25 82 2 0 -1 9 -7 20 -12 22 -69 200 -76 239 -3 14 -7 28 -10 33 -3 4 -7 17
-9 28 -4 23 -31 52 -95 103 -28 22 -51 50 -59 74 -44 125 -171 341 -274 468
-63 77 -169 186 -281 289 l-49 45 18 28 c22 34 70 85 154 166 158 153 251 252
251 270 0 17 20 4 71 -47z m-3801 -736 l0 -400 -37 -1 c-21 0 -47 -2 -58 -3
-11 -2 -54 -6 -95 -10 -41 -4 -78 -10 -81 -12 -4 -2 -28 -6 -53 -9 -26 -3 -59
-10 -73 -16 -14 -5 -28 -7 -31 -5 -2 3 -13 1 -24 -5 -11 -6 -32 -13 -46 -15
-15 -3 -58 -16 -97 -30 -38 -14 -77 -27 -86 -29 -9 -2 -25 -8 -35 -14 -11 -6
-50 -24 -88 -41 -58 -25 -235 -119 -295 -155 -44 -28 -134 -87 -144 -96 -7 -6
-25 -19 -42 -29 -16 -10 -58 -39 -92 -65 l-62 -45 -22 32 c-44 63 -232 255
-471 484 -21 20 -38 40 -38 44 0 13 213 194 325 275 97 71 269 180 303 192 9
4 19 9 22 12 13 15 231 115 335 153 139 52 395 121 495 134 25 3 47 8 50 9 3
2 35 7 70 10 36 4 68 8 71 11 3 2 55 6 115 10 60 3 111 8 113 10 2 2 19 4 38
4 l33 0 0 -400z m470 384 c30 -2 73 -7 95 -10 22 -4 54 -8 70 -10 17 -2 64
-10 105 -19 41 -9 82 -17 90 -19 12 -2 72 -16 90 -21 3 -1 19 -5 35 -10 154
-40 326 -106 510 -196 85 -41 95 -47 218 -121 43 -27 82 -48 87 -48 5 0 10 -3
12 -8 2 -4 28 -24 58 -44 114 -76 192 -131 260 -185 8 -6 39 -31 69 -54 l54
-42 -220 -216 c-122 -119 -248 -248 -281 -287 l-60 -72 -103 74 c-57 40 -109
78 -116 84 -7 5 -24 15 -38 22 -14 6 -25 15 -25 20 0 4 -4 8 -10 8 -5 0 -40
20 -78 44 -100 65 -369 197 -432 211 -8 2 -41 13 -72 24 -32 11 -58 18 -58 15
0 -2 -13 2 -29 10 -16 9 -30 13 -33 11 -2 -3 -22 0 -44 6 -21 6 -48 13 -59 15
-78 13 -181 25 -239 30 -38 2 -72 7 -75 10 -3 3 -6 183 -6 401 l0 395 85 -7
c47 -4 110 -8 140 -11z m-3340 -264 c3 -3 21 -17 41 -32 36 -26 211 -198 393
-385 l99 -102 -54 -68 c-29 -37 -56 -70 -59 -73 -24 -21 -280 -392 -280 -405
0 -4 -8 -19 -19 -33 -31 -44 -153 -277 -194 -372 -22 -50 -40 -93 -43 -105 -1
-5 -16 -43 -33 -82 -16 -40 -28 -73 -25 -73 2 0 -2 -13 -11 -30 -9 -16 -13
-30 -11 -30 3 0 -2 -19 -10 -42 -16 -47 -65 -231 -68 -263 -2 -11 -6 -33 -10
-50 -3 -16 -8 -41 -11 -55 -3 -14 -7 -36 -10 -50 -3 -14 -7 -45 -10 -70 -3
-25 -8 -58 -10 -75 -3 -16 -7 -55 -9 -85 -2 -30 -7 -88 -11 -127 l-8 -73 -398
0 c-314 0 -398 3 -394 13 2 6 6 76 9 155 3 79 7 146 10 150 2 4 7 45 11 92 3
46 8 87 10 90 2 3 6 30 10 60 4 30 8 58 10 61 2 3 6 27 10 53 3 27 7 51 9 55
3 4 7 26 11 50 3 24 10 54 15 67 5 13 7 24 5 24 -2 0 0 11 5 25 5 14 12 36 14
48 12 66 130 431 146 452 4 6 11 21 15 33 4 13 16 45 28 70 12 26 21 49 22 52
1 13 144 293 177 348 21 34 38 64 38 67 0 2 26 44 58 92 33 48 65 99 72 113 7
14 16 27 20 30 5 4 53 71 110 154 31 46 95 131 101 136 4 3 31 37 60 76 30 38
70 89 89 111 36 44 40 44 80 3z m5777 -362 c29 -21 60 -46 70 -56 10 -10 68
-63 128 -118 61 -54 112 -101 115 -104 35 -38 225 -146 272 -155 10 -2 21 -6
26 -8 4 -3 25 -8 47 -11 28 -5 48 -16 67 -39 28 -33 98 -166 98 -186 0 -6 5
-11 10 -11 6 0 10 -6 10 -14 0 -8 22 -37 49 -65 34 -35 62 -54 96 -64 48 -13
48 -14 77 -93 31 -84 51 -147 49 -152 -1 -1 6 -16 15 -33 8 -17 13 -33 10 -36
-3 -3 1 -18 10 -34 8 -16 12 -29 9 -29 -3 0 -1 -9 5 -21 7 -11 14 -32 16 -45
3 -14 12 -46 20 -72 9 -25 18 -55 19 -67 2 -11 8 -35 13 -52 6 -18 9 -33 6
-33 -3 0 0 -8 5 -18 5 -10 12 -36 15 -58 2 -21 7 -46 10 -54 3 -8 7 -28 10
-45 2 -16 12 -77 21 -133 9 -57 18 -123 20 -145 3 -44 15 -237 19 -319 l2 -48
-403 0 -403 0 -1 43 c-1 142 -15 293 -35 397 -8 41 -16 76 -18 77 -4 4 -57
-55 -100 -111 -84 -111 -117 -241 -92 -368 l7 -38 -126 0 c-93 0 -125 3 -126
13 -8 89 27 202 96 303 30 45 135 184 152 202 20 21 78 123 97 172 22 56 45
186 45 248 -2 96 -31 221 -72 312 -17 37 -69 123 -84 138 -28 29 -36 60 -38
152 -3 100 -23 170 -60 200 -23 19 -128 16 -157 -4 -25 -18 -23 -19 -103 89
-33 44 -62 82 -65 85 -3 3 -32 39 -64 80 -32 41 -74 91 -93 111 -45 47 -38 62
70 166 47 45 83 84 80 87 -4 3 -1 6 5 6 6 0 14 9 17 20 7 21 7 21 43 -2 20
-12 60 -39 89 -60z m-5033 -378 c62 -49 105 -90 231 -220 77 -79 175 -180 217
-223 75 -78 81 -91 56 -122 -5 -5 -27 -35 -49 -65 -57 -78 -155 -178 -267
-270 -53 -45 -107 -89 -119 -99 -13 -11 -38 -29 -58 -41 -19 -12 -35 -25 -35
-30 0 -5 -8 -11 -18 -14 -10 -4 -27 -14 -38 -24 -10 -9 -50 -39 -89 -66 -108
-76 -184 -145 -232 -210 -39 -53 -79 -128 -88 -166 -2 -8 -8 -30 -14 -48 -11
-36 -8 -283 4 -319 l7 -23 -167 0 -167 0 3 138 c2 75 6 155 10 177 4 22 9 65
13 96 3 30 7 62 10 70 3 8 7 28 9 44 17 111 91 363 128 437 5 10 9 22 9 28 0
17 153 340 193 405 7 11 31 50 55 88 23 37 42 72 42 77 0 6 4 10 9 10 5 0 14
14 21 30 7 17 16 30 21 30 4 0 11 9 14 20 3 11 12 26 18 32 7 7 23 29 37 48
13 19 60 83 104 142 67 90 82 105 95 95 9 -7 24 -19 35 -27z m4582 -59 c104
-104 158 -165 198 -225 90 -136 119 -281 83 -419 l-15 -55 57 -25 c41 -18 77
-47 131 -104 116 -122 189 -281 195 -418 3 -77 -17 -131 -66 -176 -43 -40
-118 -67 -131 -46 -4 6 -4 14 0 17 4 3 8 14 9 25 0 11 8 58 16 105 39 229 -18
341 -173 340 -43 -1 -68 -15 -109 -62 -17 -20 -45 -41 -61 -47 -28 -9 -30 -8
-32 17 0 15 -2 32 -3 37 -18 95 -42 166 -79 229 -21 37 -51 67 -112 116 -37
28 -135 48 -230 46 -55 -2 -110 -6 -124 -10 -21 -6 -33 1 -77 43 -52 50 -103
120 -103 142 0 6 48 59 108 119 59 59 142 143 184 186 132 136 241 234 259
234 4 0 37 -31 75 -69z m-2454 -118 c1 -87 2 -192 2 -233 0 -85 -10 -226 -18
-239 -3 -4 -65 -8 -138 -9 l-133 0 -40 -45 c-22 -24 -49 -62 -60 -83 -38 -76
-76 -124 -109 -138 -73 -30 -178 -39 -244 -20 -23 7 -46 13 -50 13 -4 1 -32
13 -62 29 -56 28 -200 162 -275 257 -22 27 -54 65 -72 83 -17 19 -29 40 -27
46 9 21 243 186 263 186 6 0 11 3 11 8 0 4 10 12 23 18 12 6 56 28 97 50 75
40 194 94 206 94 3 0 20 6 37 14 32 15 189 64 228 71 11 2 28 6 37 9 9 3 35 8
57 11 22 4 54 10 70 14 17 4 55 9 85 10 30 1 57 4 59 7 2 2 15 4 28 4 l23 0 2
-157z m351 142 c32 -2 61 -6 66 -9 4 -3 27 -7 52 -10 53 -7 232 -50 274 -66
17 -7 37 -13 46 -15 46 -9 320 -131 354 -157 6 -5 48 -35 95 -68 79 -55 143
-110 198 -172 l23 -26 -28 -14 c-16 -8 -51 -13 -81 -12 -59 3 -55 13 -52 -117
1 -36 -4 -77 -10 -91 -11 -22 -18 -25 -66 -26 -65 0 -113 -28 -160 -93 -16
-22 -35 -46 -41 -54 -7 -7 -13 -17 -13 -20 0 -16 -73 -126 -104 -158 -61 -63
-139 -71 -226 -25 -73 39 -103 135 -65 207 19 39 60 78 129 125 82 56 122 96
136 138 12 33 11 41 -14 93 -16 31 -34 59 -41 61 -7 3 -62 -19 -121 -49 -128
-63 -220 -97 -269 -97 -51 0 -124 28 -159 61 l-31 28 0 291 0 291 25 -6 c14
-3 51 -7 83 -10z m-269 -1299 c88 -42 181 -84 191 -86 7 -1 94 -49 140 -78 60
-38 133 -118 158 -175 30 -67 33 -128 7 -201 -11 -33 -20 -73 -20 -90 0 -52
38 -160 103 -293 20 -40 33 -73 30 -73 -3 0 1 -10 9 -22 38 -59 43 -190 10
-256 -41 -81 -49 -86 -154 -87 -102 -2 -171 -24 -209 -67 -33 -38 -60 -107
-64 -161 -2 -29 -4 -55 -4 -58 -2 -12 -97 -58 -156 -75 -77 -23 -270 -25 -335
-5 -107 35 -176 107 -157 163 8 26 83 72 132 82 59 12 116 47 149 93 44 61
113 192 137 260 26 77 17 107 -54 182 -51 54 -54 55 -161 52 -44 0 -99 -17
-136 -40 -42 -26 -74 -62 -135 -151 -62 -90 -102 -134 -149 -164 -29 -18 -30
-18 -43 0 -40 55 -28 108 47 209 44 59 60 89 60 113 0 31 -35 155 -50 177 -17
26 -35 105 -34 155 2 117 78 214 265 337 52 35 99 66 104 70 6 5 28 21 50 38
58 43 131 121 150 161 9 19 19 34 22 34 3 0 47 -20 97 -44z m-2225 -495 c19
-6 37 -8 42 -5 12 7 26 -26 33 -80 4 -27 10 -54 13 -59 11 -18 12 -276 2 -310
-6 -17 -11 -38 -13 -45 -4 -19 -22 -34 -48 -38 -13 -1 -43 -7 -68 -12 -25 -5
-57 -7 -72 -5 -28 4 -34 -6 -62 -105 -24 -84 -55 -138 -91 -158 l-33 -19 21
-45 c19 -39 27 -45 56 -48 50 -5 79 16 111 78 16 31 35 62 43 68 15 12 93 20
103 10 4 -5 29 -91 38 -133 7 -33 48 -150 55 -159 5 -6 10 -14 10 -18 8 -49
161 -347 183 -356 4 -2 8 -8 8 -13 0 -11 50 -84 142 -207 78 -102 77 -87 9
-167 -19 -22 -135 -139 -257 -260 -123 -121 -250 -252 -282 -292 -58 -70 -60
-71 -65 -45 -3 15 -11 47 -16 72 -13 52 -48 240 -61 320 -22 140 -32 208 -36
245 -2 21 -6 46 -9 55 -2 8 -7 33 -10 55 -3 22 -8 51 -11 65 -2 14 -7 39 -10
55 -2 17 -12 64 -20 105 -9 41 -18 86 -20 100 -3 14 -16 63 -30 110 -14 47
-26 90 -28 95 -1 6 -13 39 -26 74 -29 73 -89 147 -140 170 l-35 16 0 104 0
105 100 55 100 56 0 63 -1 64 41 19 c52 25 84 53 124 113 l33 48 -21 47 c-24
53 -40 121 -41 169 0 28 5 35 33 47 36 15 150 13 206 -4z m1342 -193 c43 -18
47 -23 62 -76 21 -72 28 -124 19 -138 -7 -11 -110 -47 -172 -60 -44 -9 -65
-11 -172 -20 l-88 -7 0 31 c0 17 8 57 19 90 31 100 94 172 171 196 52 16 96
12 161 -16z m-3477 -191 c5 -28 17 -138 32 -287 2 -25 6 -58 9 -75 2 -16 7
-55 10 -85 3 -30 10 -77 16 -104 5 -27 7 -51 5 -53 -2 -3 0 -18 5 -35 5 -17
11 -50 15 -72 8 -56 45 -228 59 -273 5 -16 3 -23 -6 -24 -8 -1 -34 -3 -59 -4
-240 -16 -283 -22 -363 -46 -72 -21 -156 -84 -158 -118 0 -9 -6 -3 -14 14 -7
17 -12 33 -12 36 1 3 -3 12 -9 20 -16 20 -75 206 -79 251 -1 9 -5 24 -9 34 -4
9 -9 33 -12 53 -3 20 -7 42 -10 50 -2 8 -7 37 -10 65 -3 28 -7 57 -10 65 -2 8
-7 48 -10 90 -3 42 -7 83 -10 91 -3 8 -8 111 -11 228 l-6 212 316 0 315 0 6
-33z m1064 1 c5 -18 10 -81 11 -139 l2 -105 -53 -24 c-91 -42 -167 -105 -248
-206 -22 -27 -90 -144 -90 -154 0 -5 -3 -10 -7 -12 -5 -2 -21 -28 -37 -58 -41
-79 -118 -208 -136 -228 -8 -9 -31 -37 -50 -61 l-35 -45 -12 45 c-8 24 -15 53
-18 64 -2 11 -20 89 -39 173 -19 84 -38 176 -41 205 -4 28 -9 55 -11 58 -2 4
-6 40 -10 80 -3 41 -8 77 -10 81 -3 4 -7 69 -10 145 -2 76 -7 155 -9 176 l-5
37 400 0 399 0 9 -32z m421 26 l62 -7 -20 -21 c-29 -32 -61 -139 -66 -221 -1
-16 -3 -87 -4 -157 -1 -95 -4 -126 -13 -124 -71 12 -114 109 -117 266 -1 81
-4 111 -16 214 -5 37 -3 45 12 49 28 7 95 8 162 1z m5987 -61 c-4 -38 -9 -99
-11 -138 -5 -66 -10 -113 -21 -195 -8 -55 -36 -150 -44 -150 -4 0 -36 32 -71
71 -35 40 -69 77 -74 83 -25 26 -103 144 -123 186 -29 61 -52 127 -58 173 l-6
37 207 0 208 0 -7 -67z m1046 57 c4 -14 -21 -390 -27 -400 -2 -3 -6 -37 -10
-75 -4 -39 -9 -73 -11 -76 -2 -4 -6 -28 -9 -55 -4 -27 -17 -101 -31 -164 -29
-132 -27 -126 -49 -205 -9 -33 -18 -68 -20 -77 -2 -9 -9 -26 -15 -37 -6 -12
-8 -21 -6 -21 3 0 -8 -37 -25 -82 -16 -46 -31 -87 -33 -93 -2 -5 -7 -19 -11
-30 -4 -11 -19 -49 -32 -85 -33 -87 -212 -454 -224 -458 -5 -2 -9 -8 -9 -14 0
-10 -128 -228 -139 -238 -3 -3 -37 -52 -76 -110 -64 -95 -247 -347 -288 -395
-9 -11 -23 -28 -30 -38 -12 -17 -16 -14 -50 41 -32 52 -53 94 -63 127 -24 76
-43 159 -38 166 4 7 -23 13 -47 11 -3 -1 -48 6 -100 14 -52 8 -104 17 -117 19
-13 2 -29 9 -37 15 -8 7 -15 9 -15 4 0 -5 -4 -4 -8 1 -4 6 -23 21 -44 35 -34
23 -68 74 -68 103 0 10 40 70 88 132 56 73 272 390 272 400 0 3 20 37 44 77
43 71 197 383 211 428 1 3 5 12 8 20 16 35 86 260 98 312 l13 56 77 4 c92 4
119 21 119 76 0 25 -7 41 -27 58 -29 25 -35 27 -91 26 l-33 0 6 46 c4 26 10
70 15 97 7 43 14 97 26 215 1 14 3 60 3 103 l1 77 399 0 c263 0 400 -3 403
-10z m919 5 c3 -2 2 -37 -3 -77 -4 -40 -10 -111 -13 -158 -3 -47 -8 -92 -10
-100 -2 -8 -7 -48 -10 -89 -3 -41 -7 -77 -9 -80 -2 -3 -7 -33 -11 -66 -3 -32
-8 -62 -10 -65 -2 -3 -6 -30 -10 -60 -3 -29 -8 -57 -10 -60 -3 -4 -7 -29 -10
-54 -3 -26 -10 -58 -15 -70 -5 -13 -7 -26 -4 -29 2 -2 0 -15 -5 -29 -5 -14
-12 -41 -15 -60 -3 -19 -10 -47 -15 -62 -6 -14 -8 -26 -6 -26 2 0 0 -11 -5
-25 -5 -14 -12 -36 -14 -49 -14 -79 -134 -460 -170 -541 -8 -16 -26 -61 -41
-100 -70 -179 -211 -462 -316 -633 -24 -40 -49 -81 -54 -90 -20 -34 -90 -137
-96 -142 -3 -3 -12 -16 -18 -28 -7 -13 -37 -56 -67 -95 -30 -40 -64 -85 -77
-102 -30 -40 -140 -179 -147 -185 -3 -3 -34 -39 -70 -80 -36 -41 -88 -98 -116
-126 l-52 -52 -43 36 c-165 142 -238 217 -318 333 l-59 83 42 56 c22 30 43 57
46 60 3 3 17 21 30 40 13 19 27 37 30 40 3 3 17 21 30 40 13 19 30 41 37 48 7
7 13 17 13 21 0 4 8 16 18 27 41 46 242 349 242 364 0 5 4 10 8 10 5 0 17 17
29 38 11 20 42 75 70 122 66 114 141 263 197 390 26 58 51 114 56 125 45 95
140 393 179 560 7 28 16 66 21 85 5 19 12 53 16 75 4 22 8 47 10 55 6 33 18
106 19 115 3 23 17 131 20 145 2 14 16 165 21 223 1 15 2 77 3 137 l1 110 338
0 c186 0 341 -2 343 -5z m-6876 -429 c101 -16 236 -58 277 -87 14 -10 30 -19
36 -19 9 0 76 -55 112 -91 68 -69 114 -145 151 -248 l23 -64 -142 -137 -142
-137 -57 60 c-66 67 -67 68 -108 122 -35 46 -64 89 -83 125 -34 62 -86 166
-88 175 -1 6 -12 35 -24 65 -34 83 -72 221 -66 236 6 17 0 17 111 0z m3080
-369 c85 -24 155 -128 155 -231 0 -39 -14 -46 -101 -46 -54 0 -56 1 -56 25 0
26 -34 82 -75 125 -36 37 -49 82 -35 120 13 33 18 34 112 7z m1670 -28 c-4
-12 -8 -31 -10 -42 -7 -46 -41 -150 -66 -199 -5 -10 -9 -23 -9 -29 0 -31 -201
-409 -237 -447 -7 -7 -13 -17 -13 -21 0 -7 -23 -39 -68 -96 -4 -5 -18 -26 -32
-45 -13 -19 -27 -37 -30 -40 -3 -3 -21 -25 -40 -50 -38 -50 -69 -80 -81 -80
-13 0 -49 42 -49 57 0 21 -46 63 -69 63 -11 0 -36 -16 -54 -35 -33 -34 -44
-63 -53 -140 -6 -46 -26 -128 -36 -149 -9 -17 -18 -18 -92 -12 -155 13 -173
16 -267 41 -52 14 -102 27 -112 29 -9 3 -22 8 -27 11 -5 3 -18 8 -27 10 -22 5
-128 42 -168 60 -72 30 -139 55 -151 55 -22 0 -17 17 14 45 80 76 202 73 385
-9 109 -49 181 -69 252 -70 59 0 78 4 123 29 69 37 131 117 149 188 26 111 34
180 35 307 1 134 -8 342 -18 396 -6 30 43 77 113 110 31 13 58 23 60 20 2 -2
19 0 36 5 18 5 68 12 112 14 216 13 355 26 380 36 39 15 57 11 50 -12z m-3682
-30 c12 -7 24 -15 27 -18 15 -18 283 -151 303 -151 9 0 18 -4 21 -9 5 -7 51
-20 71 -21 3 0 19 -7 35 -15 17 -9 30 -13 30 -11 0 3 18 -1 40 -9 22 -8 41
-14 43 -13 1 1 19 -2 40 -6 l37 -7 0 -234 0 -234 -46 -33 c-128 -91 -174 -151
-174 -231 0 -26 -1 -27 -42 -22 -169 22 -343 76 -503 157 -76 38 -244 135
-255 147 -3 3 -45 33 -94 66 -127 85 -124 79 -79 134 46 56 140 156 212 225
29 28 108 106 175 173 66 67 125 122 129 122 5 1 18 -4 30 -10z m1832 -354 c1
-70 -44 -146 -101 -170 -38 -16 -128 -15 -145 2 -22 22 -14 62 22 118 37 56
89 82 164 81 60 -1 60 -1 60 -31z m797 -38 c41 -17 58 -37 64 -76 4 -23 1 -31
-15 -36 -72 -22 -206 -23 -249 -1 -17 9 -33 20 -37 26 -10 16 23 68 52 83 39
19 144 21 185 4z m-679 -319 c-2 -59 -40 -134 -94 -187 -23 -22 -46 -41 -50
-41 -4 0 -14 -6 -21 -13 -7 -7 -33 -24 -58 -37 -47 -26 -108 -68 -125 -86 -5
-6 -30 -26 -55 -45 -25 -18 -47 -36 -50 -39 -3 -4 -27 -22 -55 -41 -76 -51
-154 -46 -255 16 -193 119 -292 132 -433 56 -39 -21 -91 -42 -114 -46 -43 -7
-43 -7 -43 24 0 76 123 243 234 318 23 15 46 33 53 39 7 7 33 22 58 34 36 18
57 21 93 17 51 -6 199 -53 220 -69 6 -6 12 -8 12 -4 0 4 14 0 30 -9 17 -9 30
-13 30 -10 0 3 8 1 18 -4 41 -22 163 -32 230 -19 42 8 111 49 159 94 51 49
110 85 147 91 17 3 33 7 36 9 2 3 11 3 20 2 11 -3 15 -15 13 -50z m-2682 -30
c11 -13 32 -40 45 -60 13 -20 34 -43 46 -49 13 -7 25 -15 28 -18 10 -12 90
-61 99 -61 5 0 11 -4 13 -8 9 -22 423 -214 490 -227 9 -2 26 -9 37 -15 12 -6
21 -9 21 -6 0 2 28 -5 63 -16 34 -10 76 -21 93 -23 17 -3 41 -8 54 -13 23 -9
23 -10 -20 -41 -68 -48 -148 -129 -192 -194 -54 -80 -78 -152 -74 -229 4 -93
26 -136 93 -183 88 -63 111 -84 128 -117 8 -17 15 -32 15 -34 0 -4 -84 7 -125
17 -22 5 -52 11 -66 13 -57 9 -241 59 -305 82 -38 14 -73 27 -79 28 -5 2 -17
6 -25 9 -14 6 -69 27 -80 30 -26 8 -272 134 -334 171 -75 45 -228 150 -271
187 -11 10 -43 38 -72 62 -28 25 -80 73 -115 107 l-63 62 25 16 c34 22 117
106 170 172 24 30 72 84 106 120 34 36 77 83 95 104 45 52 146 136 164 136 8
0 24 -10 36 -22z m-2971 -299 c89 -27 128 -56 290 -219 147 -148 176 -173 266
-223 55 -31 103 -57 107 -57 10 0 110 -66 133 -88 12 -12 35 -47 50 -79 39
-80 80 -116 209 -189 78 -43 136 -86 167 -125 l29 -35 -188 -190 c-104 -104
-202 -200 -220 -212 l-31 -22 -84 91 c-45 50 -88 96 -94 103 -30 33 -134 156
-159 191 -17 22 -35 45 -41 50 -20 20 -84 109 -181 255 -34 52 -66 100 -70
106 -9 11 -24 36 -55 93 -11 20 -24 41 -28 46 -24 33 -195 383 -205 420 -1 6
-9 27 -19 47 -9 21 -16 42 -16 47 0 12 91 5 140 -10z m6765 -534 c62 -11 158
-68 215 -126 32 -33 96 -114 141 -181 46 -68 93 -134 106 -148 13 -14 23 -28
23 -31 0 -19 -209 -207 -297 -267 -33 -22 -114 -72 -117 -72 -2 0 3 35 11 78
7 42 16 93 19 112 3 19 8 38 10 41 2 4 6 28 9 55 3 27 8 61 11 76 8 42 -6 115
-30 151 -28 41 -85 73 -145 81 -27 4 -48 12 -48 19 -1 6 -10 37 -20 67 -17 47
-21 90 -14 149 1 14 37 13 126 -4z m-4225 -167 c30 -26 33 -27 145 -99 134
-87 323 -187 425 -224 3 -1 25 -11 50 -22 25 -11 74 -30 110 -43 36 -12 74
-26 85 -31 22 -9 241 -75 277 -84 13 -2 67 -16 121 -29 54 -14 110 -27 125
-30 15 -2 65 -12 112 -21 47 -9 94 -18 105 -20 11 -1 35 -5 54 -10 18 -4 45
-8 60 -10 14 -1 52 -5 84 -10 l57 -7 0 -390 0 -390 -92 7 c-51 5 -109 9 -128
10 -31 2 -77 7 -195 21 -16 2 -48 6 -70 9 -22 4 -53 9 -70 11 -16 3 -37 7 -45
9 -8 3 -32 7 -54 9 -21 3 -46 8 -55 10 -9 3 -27 7 -41 10 -89 17 -128 26 -152
35 -16 6 -28 8 -28 6 0 -2 -12 0 -27 6 -16 6 -37 13 -49 15 -61 11 -326 101
-401 135 -24 10 -47 19 -53 19 -6 0 -18 4 -28 10 -9 5 -57 28 -107 51 -138 63
-240 116 -345 177 -103 60 -326 207 -348 229 -7 7 -17 13 -20 13 -4 0 -18 10
-32 23 -14 12 -41 33 -60 47 -19 13 -37 27 -40 30 -3 3 -27 23 -55 45 -27 22
-60 50 -73 62 l-23 22 28 14 c37 19 137 43 276 67 263 46 335 71 402 140 l40
41 -2 80 c-1 43 1 79 4 79 3 0 18 -10 33 -22z m-1019 -535 c192 -164 478 -371
714 -513 103 -63 440 -242 448 -239 1 1 25 -9 52 -21 117 -52 185 -80 185 -75
0 2 25 -7 55 -20 30 -14 56 -24 58 -24 1 1 55 -15 120 -35 64 -21 125 -39 135
-41 9 -2 32 -8 50 -14 17 -5 32 -8 32 -5 0 3 9 0 19 -6 11 -5 35 -12 53 -14
18 -3 40 -7 48 -10 8 -3 26 -7 40 -10 14 -3 61 -12 105 -20 86 -17 108 -20
230 -36 44 -5 97 -12 117 -15 88 -12 299 -28 341 -26 l27 1 0 -331 0 -331
-107 7 c-60 5 -128 9 -153 10 -25 1 -79 5 -120 10 -41 5 -78 8 -82 7 -4 -1
-29 2 -55 8 -27 5 -71 12 -99 14 -28 3 -57 8 -65 10 -8 3 -33 7 -56 10 -22 3
-52 8 -65 10 -12 3 -34 8 -48 10 -23 4 -78 16 -175 37 -145 31 -320 81 -510
146 -71 25 -134 46 -140 47 -5 2 -27 10 -47 20 -21 9 -40 16 -43 16 -3 0 -27
10 -53 21 -25 12 -51 22 -57 24 -29 6 -454 211 -465 224 -5 7 -81 49 -117 66
-13 5 -23 13 -23 18 0 4 -4 7 -10 7 -21 0 -262 159 -425 281 -219 163 -342
264 -418 346 -27 29 -28 32 -14 59 15 29 92 105 251 249 111 100 164 155 172
177 7 23 21 15 95 -49z m5909 24 c0 -10 16 -13 60 -12 43 1 60 -2 60 -12 0
-16 93 -112 140 -143 19 -13 37 -27 40 -30 3 -3 21 -17 40 -30 19 -13 63 -51
98 -85 70 -70 78 -101 40 -151 -24 -31 -97 -100 -132 -124 -12 -8 -32 -25 -46
-37 -14 -13 -28 -23 -32 -23 -3 0 -13 -6 -20 -13 -7 -7 -74 -54 -148 -104
-316 -212 -566 -368 -735 -458 -49 -26 -96 -52 -102 -58 -7 -5 -13 -6 -13 -2
0 5 -9 0 -20 -10 -11 -10 -20 -15 -20 -11 0 3 -18 -5 -40 -19 -22 -14 -40 -22
-40 -19 0 3 -10 0 -22 -8 -13 -9 -57 -30 -98 -48 -41 -18 -88 -38 -105 -45
-58 -26 -111 -47 -180 -71 -38 -14 -79 -29 -90 -34 -88 -39 -450 -140 -595
-166 -14 -3 -41 -9 -60 -14 -19 -4 -56 -11 -81 -14 -57 -8 -98 -15 -124 -21
-11 -2 -54 -7 -95 -11 -41 -3 -78 -8 -81 -10 -11 -6 -246 -19 -344 -19 l-90 0
0 322 c0 177 2 324 5 326 5 5 137 15 275 23 148 7 311 31 406 58 74 22 86 22
131 11 53 -14 142 -58 165 -81 8 -8 18 -14 23 -14 5 0 15 -6 22 -13 29 -29
166 -115 201 -127 60 -19 185 -12 214 12 7 6 13 8 13 4 0 -3 24 6 53 20 203
103 409 306 431 426 20 114 161 274 386 438 41 30 77 57 80 60 3 3 34 25 70
49 36 25 67 48 70 51 3 3 19 14 35 24 17 11 39 27 50 37 11 10 42 37 70 60 27
23 65 62 85 85 36 45 50 54 50 31z m-2535 -279 c92 -21 93 -22 91 -156 -2
-122 14 -214 48 -282 22 -42 95 -120 113 -120 7 0 13 -4 13 -10 0 -6 -3 -9 -7
-8 -5 1 -30 -2 -58 -6 -27 -4 -70 -10 -95 -12 -25 -2 -63 -5 -85 -8 -22 -3
-92 -8 -155 -12 -63 -3 -126 -7 -140 -8 l-25 -1 -1 310 c0 171 1 313 3 317 5
11 245 8 298 -4z"/>
<path d="M12680 15693 c-18 -7 -70 -54 -70 -64 0 -8 39 -55 100 -119 44 -47
108 -78 131 -64 6 3 18 22 26 41 16 41 6 88 -33 139 -33 45 -117 81 -154 67z"/>
<path d="M15280 16652 c-42 -20 -99 -47 -128 -59 -50 -20 -52 -23 -46 -50 11
-48 28 -57 107 -59 105 -2 143 -17 212 -88 84 -84 175 -197 175 -216 0 -9
-107 -123 -237 -255 -261 -263 -316 -315 -337 -315 -7 0 -44 23 -82 51 -92 68
-112 75 -138 50 l-20 -21 100 -102 c55 -57 115 -123 134 -148 19 -25 37 -47
41 -50 3 -3 29 -41 59 -85 29 -44 58 -84 64 -90 7 -5 22 -27 35 -47 24 -40 39
-46 59 -26 19 19 15 38 -29 124 -42 80 -42 81 -24 105 10 13 42 44 69 68 28
24 110 98 181 165 72 67 155 144 184 172 30 27 77 70 105 96 56 52 73 52 101
-1 8 -16 21 -35 29 -43 30 -31 126 -181 126 -199 0 -10 -13 -52 -30 -94 -16
-42 -30 -82 -30 -90 0 -8 13 -29 29 -47 l29 -33 41 30 c146 108 211 162 211
176 0 9 -13 30 -28 47 -21 22 -35 29 -57 27 -22 -3 -35 4 -61 33 -19 20 -36
45 -40 55 -3 9 -9 17 -14 17 -5 0 -11 8 -14 18 -3 9 -19 33 -36 52 -17 19 -33
43 -36 53 -3 9 -9 17 -14 17 -5 0 -16 12 -24 28 -8 15 -23 36 -33 47 -10 11
-31 38 -47 60 -17 22 -32 42 -36 45 -3 3 -17 21 -32 42 -15 20 -33 42 -40 50
-7 7 -31 35 -52 62 -21 26 -47 55 -56 64 -9 10 -47 52 -83 94 -37 42 -85 96
-108 120 -37 39 -40 47 -38 90 2 38 -2 53 -21 73 -13 14 -28 25 -34 24 -6 0
-45 -17 -86 -37z"/>
<path d="M4754 16470 c-127 -44 -202 -109 -378 -330 -6 -9 -27 -38 -46 -65
-18 -28 -36 -52 -40 -55 -3 -3 -25 -34 -49 -70 -24 -36 -65 -92 -90 -125 -25
-33 -60 -80 -76 -105 -16 -25 -32 -47 -35 -50 -3 -3 -13 -19 -23 -37 -17 -31
-17 -32 5 -53 l23 -21 41 48 c23 26 52 61 65 77 l25 28 44 -37 c85 -70 95 -78
170 -143 41 -36 82 -72 90 -81 8 -9 31 -29 50 -45 19 -15 55 -47 80 -70 25
-23 70 -61 100 -86 88 -73 120 -104 120 -118 0 -8 -16 -42 -35 -76 -19 -35
-35 -70 -35 -79 0 -14 27 -37 44 -37 5 0 66 88 66 96 0 9 114 180 129 192 8 6
12 12 8 12 -3 0 4 11 16 24 55 58 152 169 164 186 11 16 11 23 1 39 -19 31
-36 33 -65 8 -15 -12 -43 -36 -62 -52 -73 -62 -63 -62 -133 7 -56 55 -108 102
-195 176 -13 11 -23 23 -23 28 0 5 24 35 54 67 40 42 62 58 83 59 45 3 141
-11 233 -32 74 -18 242 -55 292 -65 10 -2 24 8 34 23 18 29 130 147 203 216
76 72 73 67 60 82 -16 20 -37 17 -92 -10 -38 -19 -60 -24 -110 -22 -35 2 -68
5 -73 8 -5 4 -33 9 -62 12 -29 3 -63 8 -75 11 -24 6 -54 10 -172 20 -44 4 -86
8 -92 10 -9 3 -4 24 17 73 37 86 45 123 42 190 -2 66 -39 132 -90 163 -48 29
-138 33 -208 9z m-24 -281 c69 -42 105 -108 96 -173 -10 -72 -73 -183 -173
-305 -3 -4 -44 33 -210 191 l-81 77 35 48 c96 128 170 183 247 183 34 0 63 -7
86 -21z"/>
<path d="M1180 16049 c-30 -50 -64 -108 -75 -128 -11 -20 -47 -83 -79 -140
-78 -138 -179 -351 -231 -486 -50 -131 -57 -150 -61 -165 -2 -8 -16 -59 -33
-112 -16 -54 -27 -98 -25 -98 2 0 -3 -18 -11 -40 -8 -22 -14 -43 -14 -45 1 -8
-15 -103 -26 -155 -3 -14 -8 -54 -11 -90 -3 -36 -9 -99 -12 -140 -12 -134 -7
-351 13 -585 1 -11 6 -47 10 -80 5 -33 9 -69 10 -80 3 -25 17 -114 30 -175 2
-14 7 -41 10 -60 3 -19 8 -43 11 -52 3 -9 7 -27 9 -40 4 -19 16 -71 20 -88 1
-3 5 -23 9 -45 4 -22 12 -51 17 -65 5 -14 11 -35 14 -48 17 -92 157 -529 217
-682 17 -41 31 -82 33 -90 2 -8 30 -81 63 -162 33 -81 57 -150 54 -153 -3 -3
-1 -5 5 -5 6 0 37 30 69 68 32 37 67 76 78 87 12 11 39 40 60 65 22 25 76 86
121 135 45 50 97 108 116 130 19 22 43 49 54 60 11 11 45 49 75 85 30 36 67
78 82 95 25 28 57 66 75 90 21 26 99 121 103 125 11 10 197 252 220 287 8 12
38 55 67 96 48 69 193 296 193 302 0 1 22 40 48 86 73 129 180 351 236 492 32
78 113 321 131 390 7 29 23 86 34 127 23 88 61 274 61 301 0 18 -2 18 -52 -2
-90 -35 -208 -92 -208 -101 0 -4 -6 -8 -14 -8 -14 0 -236 -145 -271 -176 -11
-11 -46 -40 -77 -67 -76 -64 -174 -162 -223 -222 -22 -28 -46 -56 -53 -63 -7
-8 -25 -30 -40 -50 -15 -21 -30 -39 -33 -42 -15 -13 -153 -227 -211 -330 -63
-111 -189 -359 -255 -505 -78 -173 -93 -206 -93 -213 0 -5 -6 -16 -13 -26 -11
-15 -12 -12 -10 21 9 127 25 752 24 918 -1 252 -16 779 -26 930 -4 61 -9 133
-10 160 -11 167 -20 275 -30 365 -4 30 -8 75 -10 100 -3 25 -7 68 -11 95 -4
28 -8 61 -9 75 -2 20 -13 96 -21 145 -1 6 -2 25 -3 43 -1 29 -4 32 -33 32 -31
0 -37 -7 -88 -91z"/>
<path d="M18736 16073 c-8 -38 -18 -84 -21 -103 -3 -19 -8 -42 -10 -50 -2 -8
-6 -33 -10 -55 -3 -22 -7 -47 -10 -55 -2 -8 -7 -42 -10 -75 -4 -32 -8 -62 -10
-65 -2 -3 -6 -43 -10 -89 -3 -47 -8 -87 -10 -91 -2 -3 -6 -48 -9 -100 -4 -52
-8 -108 -11 -125 -4 -29 -11 -160 -22 -410 -2 -66 -6 -406 -8 -755 -2 -349 -4
-675 -5 -725 l-1 -90 -26 65 c-97 247 -246 555 -314 652 -11 14 -19 29 -19 32
0 9 -171 258 -190 276 -3 3 -25 30 -50 60 -202 249 -457 468 -740 637 -61 36
-173 93 -177 89 -5 -4 22 -183 43 -286 2 -14 9 -46 14 -73 5 -26 14 -56 19
-66 6 -10 8 -20 6 -22 -5 -6 34 -139 74 -254 18 -49 33 -94 35 -100 3 -10 21
-57 33 -85 3 -8 7 -17 8 -20 17 -53 185 -387 216 -432 11 -14 19 -29 19 -33 0
-4 14 -27 30 -52 17 -24 30 -46 30 -49 0 -6 183 -284 230 -349 122 -169 175
-241 180 -245 3 -3 19 -23 35 -45 17 -22 32 -42 35 -45 3 -3 21 -25 40 -50 19
-25 37 -47 40 -50 3 -3 25 -30 50 -60 25 -30 47 -57 50 -60 3 -3 28 -32 55
-64 103 -123 455 -496 455 -482 0 2 28 -25 62 -60 33 -35 66 -64 73 -64 12 0
200 550 270 785 19 66 42 144 51 173 8 29 17 61 19 70 2 9 12 44 21 77 9 33
18 68 20 78 2 10 6 27 9 37 3 10 8 29 10 42 3 13 7 34 10 48 3 14 7 35 10 48
2 13 7 32 10 42 3 10 7 31 10 46 2 16 10 65 19 109 8 44 18 105 21 135 4 30 8
57 10 60 2 3 6 39 9 80 4 41 10 107 14 145 9 81 7 451 -2 500 -4 18 -9 57 -11
87 -5 45 -13 98 -42 248 -23 124 -106 378 -180 550 -36 86 -187 380 -195 380
-4 0 -8 6 -8 13 0 11 -134 225 -160 254 -6 7 -20 28 -31 48 -12 19 -25 35 -29
35 -5 0 -15 -30 -24 -67z"/>
<path d="M3863 15408 c-6 -7 -13 -20 -16 -28 -4 -8 -20 -37 -37 -65 -17 -27
-33 -58 -37 -67 -3 -10 -9 -18 -14 -18 -5 0 -9 -4 -9 -10 0 -8 -61 -110 -87
-146 -11 -14 -31 -49 -60 -103 l-24 -45 23 -18 c32 -25 35 -23 59 25 12 23 25
44 28 47 4 3 12 17 18 32 7 15 26 34 42 43 30 15 33 14 118 -30 165 -85 340
-195 430 -271 89 -76 123 -182 98 -307 -9 -46 -51 -156 -80 -209 -85 -157
-189 -231 -292 -208 -67 15 -156 57 -417 194 -207 108 -211 112 -206 160 2 17
45 119 71 168 7 13 4 22 -10 35 -22 18 -51 26 -51 13 0 -4 -20 -50 -44 -101
-24 -52 -65 -143 -91 -204 -26 -60 -59 -135 -72 -165 -68 -147 -131 -306 -125
-312 4 -4 19 -10 34 -13 27 -7 35 1 53 55 7 22 23 52 47 91 41 68 22 73 395
-106 87 -42 166 -81 177 -87 41 -22 107 -35 169 -33 112 3 201 73 323 251 65
94 183 365 199 453 29 165 20 255 -34 339 -18 29 -36 52 -40 52 -3 0 -19 13
-36 28 -42 40 -129 102 -205 147 -36 21 -67 41 -70 45 -3 3 -31 21 -62 40 -32
19 -58 38 -58 42 0 4 -6 8 -13 8 -7 0 -22 8 -33 18 -10 9 -31 23 -46 31 -16 8
-28 22 -28 31 0 9 18 52 40 96 l41 79 -22 18 c-25 20 -33 21 -46 5z"/>
<path d="M16074 15189 c-107 -14 -211 -86 -285 -198 -73 -112 -92 -185 -93
-356 0 -79 4 -153 11 -170 6 -17 16 -50 23 -75 7 -25 21 -64 31 -87 11 -24 19
-47 19 -51 0 -18 114 -229 167 -308 259 -389 674 -480 867 -189 21 31 39 62
40 68 1 7 8 22 14 35 7 12 10 22 7 22 -3 0 -1 9 5 19 18 35 25 94 25 216 0
115 -9 217 -21 236 -3 5 -7 17 -9 27 -7 41 -26 103 -42 139 -9 21 -17 40 -18
43 0 3 -6 15 -13 28 -7 12 -10 22 -8 22 3 0 -5 19 -18 43 -13 23 -36 65 -51
92 -117 213 -298 378 -478 435 -46 14 -106 18 -173 9z m399 -317 c70 -31 156
-123 200 -212 21 -41 39 -84 42 -95 3 -11 12 -45 20 -75 29 -106 12 -264 -37
-334 -12 -17 -26 -32 -30 -34 -4 -2 -8 -8 -8 -13 0 -30 -164 -138 -264 -174
-88 -32 -208 -30 -279 4 -94 46 -197 176 -244 307 -11 33 -17 80 -17 144 -1
89 1 100 34 167 19 40 38 73 43 73 4 0 7 6 7 14 0 22 109 126 180 171 131 85
250 104 353 57z"/>
<path d="M3136 14114 c-8 -20 0 -32 14 -18 5 5 5 15 1 22 -6 11 -10 10 -15 -4z"/>
<path d="M70 13182 c0 -337 2 -401 15 -419 20 -29 42 -142 44 -228 1 -38 4
-79 6 -90 3 -11 7 -46 10 -77 3 -32 10 -69 15 -83 5 -14 8 -25 5 -25 -2 0 1
-15 7 -32 5 -18 11 -42 14 -53 2 -11 15 -58 29 -105 14 -47 27 -92 30 -100 7
-28 73 -215 85 -245 7 -16 14 -34 15 -40 2 -5 10 -27 18 -48 9 -20 17 -39 17
-42 2 -9 124 -275 149 -325 5 -8 33 -63 64 -121 31 -58 64 -121 74 -140 10
-19 20 -36 23 -39 3 -3 10 -14 16 -25 43 -80 69 -124 85 -147 11 -14 19 -29
19 -32 0 -3 13 -24 28 -48 16 -24 47 -72 70 -108 22 -36 45 -69 49 -75 5 -5
37 -53 72 -105 36 -52 68 -97 71 -100 3 -3 17 -21 30 -40 13 -19 29 -39 35
-45 7 -5 27 -30 46 -55 88 -117 266 -302 364 -380 l40 -32 7 44 c8 52 17 104
23 138 3 14 7 39 9 57 3 18 7 40 10 50 3 10 8 33 11 52 3 19 8 38 10 41 3 4 7
25 11 46 3 20 10 48 15 61 5 13 6 23 4 23 -2 0 0 11 5 25 5 14 12 36 14 48 5
26 93 340 105 377 5 14 23 72 41 130 18 58 39 125 47 150 39 119 95 296 97
305 1 6 6 24 12 40 26 70 144 478 148 510 2 11 6 30 10 42 4 12 8 30 10 40 3
10 11 48 20 84 8 37 17 78 20 90 2 13 7 37 11 53 5 16 9 36 10 45 0 9 4 32 8
51 14 73 45 273 45 300 1 15 7 66 16 125 3 17 8 98 11 180 4 83 8 162 10 177
2 15 0 30 -4 32 -10 6 -144 -116 -232 -210 -86 -93 -182 -225 -267 -365 -45
-75 -192 -375 -192 -392 0 -3 -5 -18 -11 -34 -6 -15 -11 -30 -11 -33 0 -3 -5
-14 -11 -25 -6 -11 -12 -24 -13 -30 -1 -5 -16 -49 -32 -98 -17 -48 -31 -90
-31 -92 0 -3 -7 -31 -17 -63 -9 -31 -18 -64 -19 -72 -1 -8 -14 -62 -28 -120
-31 -128 -50 -210 -53 -230 -1 -8 -7 -44 -13 -80 -20 -111 -32 -183 -39 -240
-4 -33 -10 -50 -15 -42 -5 6 -6 12 -2 12 3 0 1 9 -5 21 -6 11 -13 28 -15 37
-2 9 -25 82 -51 162 -26 80 -48 147 -49 150 -1 3 -4 12 -8 20 -3 8 -15 41 -27
74 -45 126 -124 322 -139 346 -9 13 -15 27 -14 30 0 3 -6 21 -15 40 -8 19 -16
37 -17 40 -4 12 -26 64 -46 108 -34 76 -272 557 -278 562 -3 3 -16 25 -28 50
-28 56 -101 191 -185 340 -35 63 -77 138 -93 165 -15 28 -31 55 -35 60 -4 6
-22 37 -40 70 -93 168 -164 290 -172 293 -5 2 -8 10 -8 18 0 9 -11 14 -35 14
l-35 0 0 -398z"/>
<path d="M19890 13522 c-99 -137 -291 -433 -348 -533 -11 -20 -26 -47 -34 -60
-7 -13 -15 -26 -18 -29 -3 -3 -15 -23 -27 -45 -12 -22 -38 -69 -57 -105 -77
-138 -307 -606 -352 -715 -9 -22 -25 -60 -36 -85 -11 -25 -27 -61 -35 -80 -9
-19 -21 -49 -28 -65 -22 -49 -197 -499 -201 -515 0 -3 -4 -12 -7 -20 -11 -25
-88 -244 -92 -262 -12 -56 -23 -49 -29 18 -4 38 -11 96 -17 129 -6 33 -12 71
-14 85 -7 71 -41 238 -86 425 -23 95 -102 346 -127 405 -9 19 -16 37 -17 40
-1 3 -7 18 -13 33 -7 16 -12 31 -12 33 0 12 -116 244 -152 303 -21 34 -38 64
-38 66 0 5 -81 125 -115 170 -98 130 -246 292 -329 358 l-38 30 6 -184 c3
-101 8 -200 11 -219 2 -19 7 -68 10 -109 4 -41 8 -78 10 -81 2 -3 7 -35 10
-70 4 -36 9 -68 11 -71 2 -4 6 -28 9 -53 3 -26 10 -59 16 -73 5 -14 8 -28 5
-30 -2 -3 0 -19 5 -36 5 -18 12 -47 15 -66 3 -19 10 -45 15 -58 5 -13 7 -23 4
-23 -2 0 2 -18 10 -40 8 -22 12 -40 10 -40 -2 0 2 -18 10 -40 8 -22 12 -40 9
-40 -2 0 2 -16 10 -35 8 -19 13 -35 11 -35 -3 0 0 -12 6 -27 6 -16 12 -35 13
-43 2 -15 33 -118 88 -290 16 -52 31 -103 33 -112 2 -9 8 -25 13 -35 6 -10 11
-22 11 -28 2 -14 8 -36 51 -170 21 -66 52 -167 70 -225 17 -58 35 -116 39
-130 5 -14 14 -45 21 -70 7 -25 19 -65 27 -90 8 -25 16 -56 19 -70 2 -14 11
-50 20 -80 9 -30 17 -64 19 -75 2 -11 11 -51 20 -90 9 -38 19 -79 21 -90 2
-11 6 -31 9 -45 3 -14 7 -34 9 -45 11 -59 20 -111 21 -120 0 -5 5 -35 10 -65
9 -53 11 -73 14 -106 1 -13 5 -12 29 5 74 54 328 319 437 456 22 28 43 52 46
55 18 15 175 233 241 336 29 44 59 89 66 100 6 10 18 30 24 44 7 14 15 27 18
30 9 8 121 210 161 290 49 99 124 261 141 305 11 28 26 64 33 80 32 71 145
386 150 415 0 3 9 28 18 56 10 28 19 60 21 71 3 11 11 41 20 66 8 25 17 56 20
69 2 13 20 86 40 163 83 330 79 291 79 783 0 243 -2 444 -5 447 -2 3 -20 -17
-38 -43z"/>
<path d="M2470 11033 c-12 -27 -33 -77 -47 -113 -14 -36 -29 -74 -34 -85 -24
-57 -114 -351 -125 -411 -2 -13 -9 -35 -14 -49 -5 -14 -8 -25 -5 -25 2 0 -1
-15 -6 -32 -5 -18 -12 -51 -16 -73 -3 -22 -10 -51 -14 -64 -5 -13 -8 -26 -5
-28 2 -3 0 -18 -5 -35 -4 -17 -11 -54 -14 -81 -3 -28 -8 -54 -10 -58 -3 -4 -8
-40 -11 -80 -3 -40 -7 -76 -10 -80 -2 -4 -6 -40 -9 -81 -3 -40 -9 -107 -14
-148 -10 -94 -11 -631 0 -725 4 -39 10 -106 14 -149 3 -44 8 -82 9 -85 2 -3 7
-35 11 -71 4 -36 8 -67 10 -70 2 -3 6 -26 10 -50 3 -25 10 -60 15 -77 17 -67
-6 -38 -130 162 -8 13 -40 63 -70 110 -30 47 -60 93 -65 103 -15 25 -80 126
-227 352 -147 226 -193 295 -205 308 -7 7 -13 17 -13 22 0 5 -6 15 -13 22 -7
7 -42 56 -77 108 -36 52 -67 97 -70 100 -3 3 -26 34 -51 70 -24 35 -49 71 -56
80 -7 8 -74 103 -150 210 -75 107 -140 197 -143 200 -3 3 -32 41 -65 84 -87
116 -234 286 -319 372 -57 56 -179 162 -251 215 -90 68 -89 67 -82 28 4 -19 9
-61 12 -94 4 -33 8 -67 11 -76 2 -9 7 -36 9 -59 2 -23 7 -50 10 -59 2 -9 7
-36 10 -60 3 -24 7 -47 9 -50 3 -4 7 -26 11 -50 3 -24 10 -53 15 -66 5 -13 7
-25 5 -27 -2 -2 2 -24 9 -48 8 -25 14 -49 15 -55 4 -25 13 -64 24 -105 6 -25
12 -47 13 -50 4 -20 32 -123 99 -365 16 -55 29 -107 30 -116 0 -8 6 -28 12
-45 11 -28 25 -79 28 -99 1 -5 5 -17 8 -25 3 -8 24 -68 47 -134 76 -223 187
-421 329 -586 75 -87 220 -232 306 -305 38 -33 76 -67 85 -76 8 -9 37 -34 65
-55 27 -21 56 -46 65 -54 9 -8 47 -40 85 -70 37 -30 87 -71 110 -90 23 -19 72
-60 110 -90 37 -30 73 -60 79 -65 51 -46 467 -345 481 -345 2 0 31 -18 64 -40
33 -22 62 -40 65 -40 3 0 27 -13 54 -29 48 -28 104 -51 90 -36 -3 3 -2 21 3
38 5 18 12 54 15 81 3 28 7 53 9 57 3 3 7 30 10 59 3 29 7 55 9 59 2 3 7 29
10 56 4 28 9 57 11 65 2 8 6 33 9 55 4 22 8 51 11 65 2 14 7 47 10 74 3 27 7
51 9 55 2 3 7 35 11 71 4 36 9 67 10 70 2 3 6 37 10 75 3 38 8 71 9 74 2 3 7
37 11 76 4 38 8 72 10 75 2 3 6 39 9 80 4 41 8 82 11 90 2 8 6 53 10 100 3 47
8 94 10 105 3 11 7 65 10 120 4 55 10 147 14 205 13 189 5 741 -13 900 -22
192 -24 209 -32 250 -4 19 -8 48 -10 65 -2 16 -7 38 -10 47 -3 10 -7 30 -10
44 -5 26 -23 95 -44 168 -7 21 -13 46 -15 55 -6 27 -53 152 -86 229 -30 69
-33 72 -65 72 -30 0 -35 -5 -54 -47z"/>
<path d="M17477 11039 c-54 -63 -59 -69 -50 -69 4 0 3 -4 -3 -8 -19 -12 -74
-131 -104 -221 -39 -123 -59 -208 -75 -331 -4 -25 -10 -65 -15 -90 -5 -24 -6
-48 -4 -51 2 -4 0 -31 -6 -60 -22 -133 -37 -510 -29 -734 8 -204 19 -384 24
-411 3 -12 7 -61 11 -110 3 -49 8 -92 10 -95 2 -3 6 -42 10 -85 3 -43 8 -82
10 -85 1 -3 6 -39 10 -80 3 -41 8 -77 10 -80 2 -4 6 -28 9 -55 5 -46 10 -80
19 -129 4 -26 18 -113 21 -142 3 -20 12 -80 20 -123 1 -8 6 -35 10 -60 4 -25
9 -52 10 -60 1 -8 6 -35 10 -60 8 -47 8 -49 21 -120 4 -25 8 -49 9 -55 1 -10
15 -93 21 -130 2 -11 6 -31 9 -45 3 -14 7 -43 9 -63 2 -21 6 -41 9 -43 4 -4
258 159 302 194 6 4 91 61 190 126 148 98 310 210 360 248 6 4 39 29 75 55 36
26 79 58 96 72 17 15 48 40 69 56 22 17 53 42 70 56 16 14 43 37 59 50 34 28
144 129 196 179 32 31 83 86 184 200 17 19 47 55 66 80 19 25 37 47 41 50 39
31 249 413 249 454 0 4 7 23 17 44 9 20 17 39 17 42 2 7 56 178 74 230 8 25
18 61 22 80 5 19 18 71 29 115 12 44 24 91 26 105 3 14 11 52 20 85 8 33 17
72 20 88 3 15 12 59 20 97 8 38 17 84 20 102 3 18 8 40 10 48 2 8 7 31 10 50
3 19 8 42 10 50 2 8 7 31 10 50 3 19 8 42 10 50 2 8 7 31 10 50 3 19 8 42 10
50 2 8 7 31 10 50 3 19 17 87 31 150 31 149 31 150 -8 114 -18 -16 -58 -50
-88 -74 -171 -140 -438 -420 -620 -650 -28 -36 -56 -72 -63 -80 -7 -8 -23 -31
-37 -50 -14 -19 -30 -42 -37 -50 -16 -20 -84 -113 -103 -140 -8 -12 -28 -41
-44 -63 -76 -106 -306 -458 -306 -467 0 -5 -4 -10 -9 -10 -5 0 -14 -13 -21
-30 -7 -16 -16 -30 -21 -30 -5 0 -9 -4 -9 -9 0 -5 -19 -39 -42 -75 -24 -36
-65 -100 -92 -143 -109 -171 -145 -227 -292 -448 -166 -249 -199 -293 -190
-260 3 11 8 35 11 54 3 19 7 37 9 40 2 3 7 31 11 61 4 30 8 58 10 61 2 3 6 31
9 63 4 32 8 61 11 65 2 4 7 50 10 101 3 51 9 98 12 103 9 15 11 589 2 687 -4
47 -11 119 -14 160 -3 41 -8 82 -10 90 -2 8 -7 46 -10 84 -3 38 -7 71 -9 75
-2 3 -7 31 -11 61 -4 30 -8 57 -10 60 -2 3 -6 27 -9 54 -4 27 -9 52 -11 55 -1
3 -6 22 -9 41 -3 19 -10 50 -15 68 -5 17 -8 32 -6 32 3 0 0 11 -5 25 -5 14
-12 36 -14 48 -2 12 -11 47 -20 78 -9 31 -18 65 -21 75 -2 11 -18 60 -35 109
-17 50 -38 110 -46 135 -9 25 -39 94 -67 154 l-52 109 -38 -44z"/>
<path d="M3034 8819 c4 -46 9 -131 11 -189 3 -58 7 -127 10 -155 3 -27 7 -90
10 -140 3 -49 7 -106 10 -125 3 -19 8 -69 10 -110 3 -41 7 -86 10 -100 2 -14
7 -61 10 -104 3 -44 8 -83 10 -86 2 -3 6 -39 10 -80 4 -41 8 -77 10 -80 2 -3
7 -35 10 -70 4 -36 8 -67 10 -70 2 -3 6 -32 10 -64 3 -33 8 -62 9 -65 2 -3 7
-28 10 -56 4 -27 9 -57 11 -65 3 -8 7 -29 9 -45 2 -17 6 -41 10 -55 3 -14 8
-36 10 -50 2 -14 7 -36 10 -50 3 -14 8 -36 10 -50 5 -32 11 -57 48 -210 33
-139 54 -213 106 -375 20 -60 36 -112 37 -115 10 -56 152 -393 217 -517 21
-40 36 -73 33 -73 -3 0 -224 219 -493 488 -494 494 -590 587 -811 792 -68 63
-141 131 -161 150 -38 37 -188 174 -280 256 -30 27 -66 60 -81 74 -15 14 -58
52 -95 85 -38 33 -91 81 -119 106 -27 25 -62 54 -77 66 -30 22 -133 112 -212
184 -159 145 -285 228 -445 293 -70 28 -87 24 -72 -17 6 -14 12 -43 15 -64 2
-21 10 -51 16 -68 6 -16 11 -31 10 -33 -2 -4 11 -65 20 -92 4 -14 18 -59 30
-100 19 -65 32 -105 66 -195 4 -11 8 -24 9 -30 2 -5 13 -32 25 -60 12 -27 26
-59 30 -70 21 -53 120 -250 168 -335 93 -163 211 -328 349 -490 101 -118 370
-377 446 -429 12 -8 27 -20 32 -27 6 -6 28 -24 50 -40 22 -16 42 -31 45 -34
43 -44 361 -249 550 -355 118 -66 474 -241 571 -280 51 -22 104 -45 117 -53
12 -8 22 -11 22 -7 0 4 6 3 13 -2 6 -5 62 -29 122 -53 61 -23 129 -51 152 -61
24 -11 47 -19 52 -19 7 0 84 -28 136 -51 11 -4 88 -31 170 -59 83 -28 157 -53
165 -56 8 -3 25 -8 38 -10 19 -4 22 -1 18 13 -3 10 -8 65 -11 123 -3 58 -7
116 -10 130 -2 14 -7 60 -10 102 -3 42 -8 87 -10 100 -3 13 -7 56 -11 97 -3
41 -7 77 -9 81 -2 3 -7 37 -10 75 -4 39 -8 72 -10 75 -2 3 -6 33 -10 65 -3 33
-8 67 -11 76 -3 9 -7 38 -10 64 -2 26 -6 50 -8 54 -2 3 -7 31 -11 61 -4 30 -9
58 -11 61 -2 3 -6 21 -9 40 -3 19 -12 68 -20 109 -9 41 -17 85 -20 98 -2 13
-6 31 -9 40 -3 9 -8 33 -11 52 -3 19 -13 62 -21 95 -9 33 -18 70 -20 82 -2 12
-9 34 -14 48 -5 14 -8 25 -5 25 2 0 -2 18 -10 40 -8 22 -14 41 -14 43 7 35
-148 511 -257 792 -4 11 -8 22 -9 25 -1 3 -10 23 -20 45 -10 22 -19 42 -20 45
0 3 -6 14 -12 25 -6 11 -12 25 -13 30 -3 18 -222 458 -268 540 -96 168 -215
321 -308 396 -47 37 -47 37 -40 -52z"/>
<path d="M16843 8798 c-37 -57 -70 -105 -73 -108 -3 -3 -11 -16 -19 -30 -8
-14 -33 -54 -55 -90 -22 -36 -55 -92 -73 -125 -33 -58 -223 -441 -223 -449 0
-2 -12 -30 -27 -62 -15 -33 -27 -61 -27 -64 -1 -3 -13 -34 -28 -70 -51 -123
-106 -275 -157 -431 -49 -151 -157 -526 -166 -581 -3 -15 -9 -38 -15 -52 -5
-15 -7 -26 -5 -26 2 0 1 -10 -4 -23 -5 -13 -12 -39 -15 -58 -3 -19 -10 -49
-15 -66 -5 -18 -8 -33 -6 -33 3 0 1 -10 -4 -23 -5 -13 -12 -39 -15 -58 -3 -19
-10 -48 -15 -66 -5 -17 -7 -33 -5 -36 3 -2 0 -15 -5 -28 -5 -13 -12 -46 -15
-73 -4 -27 -9 -53 -11 -56 -3 -4 -7 -27 -10 -51 -3 -24 -7 -51 -10 -59 -2 -8
-7 -35 -10 -60 -3 -25 -8 -52 -10 -60 -3 -8 -7 -31 -9 -50 -3 -20 -7 -47 -10
-60 -3 -14 -8 -43 -11 -65 -2 -22 -11 -83 -18 -135 -8 -52 -15 -102 -15 -110
-1 -8 -3 -28 -6 -45 -3 -16 -8 -55 -11 -85 -3 -30 -8 -66 -10 -80 -20 -126
-23 -190 -10 -190 5 0 33 7 60 16 28 8 57 17 65 19 18 4 176 54 320 102 58 19
110 36 115 37 6 2 21 8 35 13 14 6 57 22 96 36 80 29 303 117 367 146 23 10
67 29 97 42 127 55 488 242 543 281 15 11 27 17 27 13 0 -3 6 -1 13 5 15 14
117 80 123 80 4 0 187 125 211 144 10 8 47 36 83 63 36 26 70 52 76 58 6 6 39
33 73 60 33 28 61 53 61 58 0 4 4 7 9 7 10 0 220 205 297 290 160 176 313 393
441 625 70 128 126 250 188 409 23 61 57 158 74 216 18 58 36 117 41 133 5 15
7 27 5 27 -2 0 2 19 11 42 8 22 12 43 9 46 -2 2 0 12 4 21 12 22 22 91 16 102
-3 5 -29 -1 -58 -12 -29 -11 -56 -21 -62 -22 -5 -2 -17 -7 -25 -12 -8 -5 -17
-10 -20 -10 -8 0 -144 -77 -150 -85 -3 -3 -21 -17 -40 -30 -19 -13 -40 -29
-46 -35 -6 -5 -25 -21 -43 -34 -17 -14 -44 -36 -60 -50 -15 -14 -58 -53 -94
-85 -37 -32 -84 -75 -105 -95 -20 -20 -82 -74 -137 -121 -54 -47 -106 -92
-114 -100 -9 -8 -50 -44 -91 -79 -41 -35 -79 -68 -85 -75 -5 -6 -44 -40 -85
-75 -41 -35 -84 -74 -96 -85 -11 -12 -54 -50 -95 -86 -40 -36 -86 -78 -101
-93 -16 -16 -28 -27 -28 -24 0 2 -19 -14 -43 -37 -23 -22 -98 -93 -167 -156
-139 -129 -506 -492 -564 -558 -21 -23 -61 -71 -89 -105 -92 -111 -260 -272
-340 -327 -43 -29 -79 -51 -81 -49 -2 2 18 49 45 104 27 55 68 149 93 210 56
142 59 148 62 160 1 6 14 42 29 80 14 39 28 79 30 91 3 11 14 50 25 85 18 55
76 265 85 309 2 8 11 47 20 85 10 39 19 80 20 92 2 11 6 29 9 40 3 10 8 34 11
53 3 19 8 42 11 51 2 9 7 33 9 54 3 20 7 40 9 44 2 3 7 31 11 61 4 30 8 57 10
60 2 3 7 33 10 65 4 33 9 63 11 66 1 3 6 34 9 70 3 35 8 71 10 79 2 8 7 40 10
70 3 30 7 71 10 90 3 19 7 53 9 75 2 22 7 74 11 115 4 41 9 93 10 115 1 22 6
81 10 130 4 50 9 117 10 150 1 33 5 123 10 200 16 301 16 305 -25 305 -25 0
-37 -13 -97 -102z"/>
<path d="M4160 7210 c-9 -5 21 -128 50 -210 5 -14 27 -86 50 -160 142 -455
307 -900 470 -1265 37 -83 233 -480 240 -485 3 -3 16 -24 27 -47 28 -54 47
-87 53 -93 6 -6 17 -23 62 -100 17 -30 38 -61 45 -69 8 -7 13 -15 11 -16 -6
-6 -226 21 -373 45 -33 5 -91 14 -130 21 -38 6 -79 12 -90 14 -11 2 -73 15
-138 29 -65 14 -130 28 -144 31 -14 2 -73 16 -130 30 -58 15 -112 28 -121 30
-9 2 -60 15 -112 30 -52 14 -102 28 -110 30 -44 12 -126 37 -215 65 -55 17
-107 33 -115 35 -27 7 -363 123 -450 155 -47 18 -96 35 -110 40 -20 6 -176 66
-275 105 -11 5 -22 9 -25 10 -3 1 -22 9 -44 18 -21 9 -40 17 -42 17 -1 0 -15
5 -31 12 -15 6 -30 12 -33 13 -3 1 -23 9 -45 19 -22 10 -67 28 -100 41 -33 12
-83 32 -112 43 l-51 21 23 -68 c55 -157 145 -334 244 -480 110 -162 309 -382
429 -473 23 -18 42 -36 42 -41 0 -4 5 -5 10 -2 6 3 10 2 10 -2 0 -5 28 -29 63
-53 34 -24 67 -48 72 -52 25 -20 137 -88 145 -88 6 0 10 -3 10 -7 0 -5 10 -13
23 -19 12 -6 72 -36 133 -67 173 -88 466 -197 597 -223 10 -2 27 -6 37 -9 10
-3 29 -8 42 -10 13 -3 57 -11 98 -20 41 -8 91 -17 110 -20 19 -3 46 -7 60 -10
14 -3 50 -7 80 -11 30 -3 84 -9 120 -13 75 -9 611 -8 626 1 5 4 50 10 99 13
49 4 92 8 96 10 3 3 34 7 69 10 35 3 66 7 69 9 3 2 33 7 66 11 32 3 62 8 66
10 3 3 21 6 40 9 19 2 70 12 114 21 44 9 89 19 100 21 11 2 34 7 50 11 17 4
32 7 35 8 3 1 21 5 40 10 19 5 42 9 50 10 8 1 62 14 120 29 58 15 112 29 120
31 8 2 41 11 74 20 61 18 83 23 104 24 20 1 15 16 -30 83 -22 35 -66 101 -97
148 -31 47 -59 90 -63 95 -11 14 -85 124 -252 375 -120 181 -178 274 -321 520
-57 97 -224 464 -239 525 -2 6 -8 23 -14 38 -7 16 -12 34 -12 41 0 23 -72 120
-170 227 -14 16 -47 54 -75 86 -110 127 -451 459 -575 559 -19 16 -43 37 -52
48 -10 10 -18 16 -18 13 0 -3 -10 4 -23 16 -26 24 -36 32 -128 104 -150 117
-174 132 -197 130 -13 -1 -27 -4 -32 -7z"/>
<path d="M15774 7190 c-22 -16 -43 -33 -49 -38 -5 -4 -28 -21 -50 -37 -22 -16
-44 -34 -50 -39 -5 -6 -26 -23 -47 -38 -20 -15 -42 -33 -50 -40 -7 -7 -31 -26
-53 -42 -22 -17 -42 -33 -45 -36 -3 -3 -21 -18 -40 -34 -168 -138 -430 -390
-510 -491 -17 -22 -35 -42 -39 -45 -12 -9 -95 -121 -147 -200 -67 -100 -129
-224 -220 -438 -66 -156 -90 -205 -164 -337 -14 -24 -103 -164 -150 -235 -110
-166 -284 -425 -289 -430 -3 -3 -22 -27 -41 -55 -19 -27 -38 -51 -42 -53 -4
-2 -8 -10 -8 -17 0 -7 -3 -15 -7 -17 -14 -6 -233 -330 -233 -344 0 -8 110 -43
187 -59 12 -3 34 -10 48 -15 14 -5 29 -9 33 -8 4 2 21 -2 37 -9 29 -11 110
-28 110 -22 0 1 9 -2 20 -8 11 -6 36 -14 56 -17 20 -3 48 -10 63 -15 14 -6 26
-9 26 -6 0 2 15 -1 33 -6 17 -5 48 -12 67 -15 19 -3 37 -7 40 -9 3 -2 26 -6
50 -10 25 -3 54 -9 65 -12 11 -3 31 -7 45 -9 14 -1 70 -9 125 -18 55 -8 127
-18 160 -21 33 -3 96 -9 140 -14 89 -9 636 -8 651 1 5 3 47 9 94 13 46 3 87 8
90 10 3 1 28 6 55 9 28 4 57 9 65 11 8 2 31 7 50 10 19 3 82 17 140 31 58 14
112 27 120 29 8 1 70 21 138 44 476 158 877 420 1186 773 32 37 66 78 74 90 8
13 20 28 26 33 6 6 20 23 30 40 11 16 23 34 28 40 16 19 104 160 135 215 16
30 40 72 51 93 12 20 21 39 19 40 -1 2 5 19 15 38 9 19 24 52 33 74 10 22 22
48 26 57 7 14 4 15 -19 8 -15 -4 -44 -15 -64 -23 -21 -9 -38 -14 -38 -11 0 3
-10 -1 -22 -8 -13 -6 -27 -13 -33 -14 -5 -2 -46 -17 -90 -34 -145 -56 -346
-132 -490 -185 -55 -20 -109 -40 -120 -45 -11 -5 -58 -22 -105 -38 -47 -17
-119 -42 -160 -57 -93 -33 -190 -65 -210 -70 -8 -2 -54 -17 -102 -33 -49 -17
-88 -28 -88 -26 0 3 -13 -2 -30 -11 -16 -9 -30 -13 -30 -10 0 3 -16 -1 -35 -9
-19 -8 -35 -13 -35 -10 0 3 -8 0 -18 -5 -11 -6 -30 -12 -43 -14 -13 -3 -49
-12 -80 -21 -31 -9 -65 -18 -75 -21 -11 -2 -44 -11 -76 -19 -31 -8 -67 -17
-80 -20 -12 -2 -61 -13 -108 -24 -75 -18 -199 -44 -270 -56 -14 -2 -36 -7 -50
-10 -14 -4 -38 -8 -55 -10 -16 -3 -64 -9 -105 -15 -41 -6 -110 -15 -153 -21
-42 -5 -92 -11 -110 -14 -17 -3 -60 -8 -95 -11 l-63 -5 63 92 c35 51 65 95 68
98 13 13 60 91 60 100 0 5 5 10 10 10 6 0 10 5 10 11 0 6 9 24 20 39 56 78
244 452 316 625 9 22 24 58 34 80 26 59 81 198 85 215 2 8 16 44 30 80 14 36
28 72 30 80 2 8 25 76 50 150 26 74 48 142 50 150 2 8 11 37 20 64 9 26 18 56
20 65 2 9 10 36 18 61 8 25 18 59 22 75 5 17 9 35 11 40 2 6 15 48 29 95 14
47 28 98 31 114 2 16 9 37 15 47 5 11 7 19 4 19 -3 0 1 16 9 35 8 19 13 35 11
35 -2 0 2 18 10 40 14 39 14 40 -9 40 -13 0 -41 -13 -62 -30z"/>
<path d="M7310 5449 c-187 -22 -307 -71 -414 -166 -100 -89 -151 -247 -124
-377 32 -149 181 -282 368 -331 158 -41 483 -39 621 4 63 20 67 23 84 66 9 25
18 55 20 68 2 12 8 36 13 54 6 17 8 34 5 37 -4 3 -25 3 -47 -1 -30 -4 -57 -20
-102 -60 -34 -29 -66 -53 -73 -53 -6 0 -11 -3 -11 -8 0 -7 -85 -43 -140 -58
-14 -4 -52 -8 -85 -9 -53 -2 -82 4 -175 32 -64 20 -125 78 -162 153 -24 50
-27 65 -27 176 0 125 9 170 46 239 59 110 160 163 304 160 128 -3 238 -47 331
-133 32 -30 48 -37 83 -38 42 -1 43 -1 38 30 -6 41 -21 91 -44 143 -20 43 -18
43 -111 57 -96 15 -324 24 -398 15z"/>
<path d="M8022 5405 c3 -29 5 -30 73 -38 38 -4 72 -13 76 -19 5 -7 7 -165 6
-351 -2 -384 4 -359 -87 -371 -71 -9 -80 -15 -80 -46 l0 -27 58 5 c78 8 317 8
430 1 l92 -7 0 33 c0 33 -1 34 -52 40 -29 3 -65 7 -80 8 l-28 1 0 357 0 357
28 6 c56 11 107 20 117 21 6 0 11 14 13 30 l3 30 -286 0 -286 0 3 -30z"/>
<path d="M8743 5424 c-2 -7 -3 -21 -1 -31 3 -17 23 -24 108 -38 19 -3 39 -10
45 -16 12 -12 14 -229 3 -364 -4 -49 -9 -133 -12 -185 -2 -53 -10 -108 -17
-123 -13 -28 -56 -47 -116 -52 -37 -2 -53 -17 -46 -44 4 -14 28 -16 221 -15
119 1 222 2 228 3 12 1 7 50 -5 52 -67 8 -127 28 -147 50 -20 23 -22 64 -9
389 2 74 5 146 5 159 0 19 10 9 45 -45 24 -38 45 -73 45 -77 0 -4 5 -13 10
-20 36 -40 264 -420 285 -473 15 -38 18 -40 56 -40 44 1 47 5 94 106 14 30 39
78 55 105 17 28 33 58 37 68 3 9 8 17 12 17 4 0 18 22 32 50 13 27 27 50 32
50 4 0 7 4 7 8 0 21 160 284 164 271 3 -8 7 -68 10 -134 3 -66 8 -190 12 -275
8 -179 8 -177 -79 -192 -29 -5 -59 -10 -67 -12 -8 -1 -16 -14 -18 -28 l-3 -25
218 1 c120 0 252 -2 294 -5 81 -7 94 -4 94 23 0 21 -5 26 -35 32 -14 2 -47 9
-73 14 -27 5 -53 14 -59 20 -5 5 -11 38 -13 73 -2 35 -6 102 -10 149 -3 47 -8
135 -10 195 -3 61 -9 143 -13 183 -8 70 -7 75 14 89 25 16 25 16 96 27 53 9
70 23 62 52 -5 19 -12 20 -122 17 -64 -1 -159 -6 -210 -9 -83 -5 -94 -8 -103
-27 -10 -23 -22 -44 -50 -87 -9 -14 -30 -50 -46 -80 -44 -81 -64 -115 -124
-213 -30 -48 -58 -97 -64 -107 -5 -11 -13 -20 -17 -20 -5 0 -8 -6 -8 -14 0 -7
-6 -19 -13 -25 -11 -8 -32 19 -102 132 -152 243 -215 348 -215 358 0 5 -3 9
-8 9 -4 0 -16 16 -26 35 -23 42 -33 44 -269 48 -130 3 -170 1 -174 -9z"/>
<path d="M11272 5405 c3 -28 6 -30 48 -31 82 -2 89 -4 109 -25 10 -11 19 -35
19 -52 1 -18 5 -63 11 -102 6 -38 11 -147 11 -241 l0 -170 -29 -46 c-55 -87
-125 -116 -294 -124 -71 -2 -108 0 -133 11 -19 8 -38 15 -42 16 -71 16 -121
87 -128 179 -2 25 -6 149 -9 275 -7 279 -11 268 99 273 76 4 76 4 76 32 l0 28
-305 0 -305 0 0 -28 c0 -26 2 -27 68 -33 37 -3 74 -8 83 -12 23 -9 28 -70 29
-337 1 -125 6 -244 12 -265 13 -52 52 -107 96 -136 31 -20 147 -69 155 -66 1
1 27 -2 57 -6 75 -11 257 -13 303 -3 20 4 52 10 70 12 49 7 136 42 192 78 35
24 57 48 75 83 24 48 25 58 25 220 0 94 -3 226 -5 295 l-5 125 72 9 c64 8 72
12 76 33 2 13 1 26 -4 28 -4 3 -103 6 -219 8 l-211 2 3 -30z"/>
<path d="M12985 5433 c-125 -4 -145 -8 -145 -33 0 -20 35 -34 113 -43 53 -7
63 -19 66 -79 1 -28 5 -56 8 -61 3 -4 7 -56 9 -115 2 -59 7 -151 12 -204 4
-54 5 -98 2 -98 -6 0 -157 111 -180 132 -8 7 -31 24 -50 38 -31 21 -540 398
-565 418 -54 42 -53 42 -266 42 l-206 0 2 -22 c4 -39 5 -41 10 -36 10 10 138
-22 171 -43 21 -13 35 -31 40 -52 4 -18 8 -144 9 -282 1 -238 -5 -359 -19
-373 -4 -3 -39 -7 -79 -8 -40 -1 -77 -2 -84 -3 -7 -1 -11 -13 -10 -28 l2 -28
253 -1 252 -2 -7 27 c-8 35 -7 35 -64 37 -90 4 -118 12 -124 39 -3 14 -8 37
-11 52 -3 14 -7 134 -10 266 l-5 240 33 -21 c48 -30 258 -175 272 -187 6 -6
63 -48 126 -95 63 -47 117 -87 120 -90 3 -3 21 -17 40 -30 19 -14 42 -30 50
-37 29 -23 267 -200 281 -208 20 -13 119 -14 120 -1 2 35 -3 321 -6 326 -2 4
-7 110 -11 236 l-6 230 25 11 c14 7 42 15 64 19 21 5 41 9 46 10 4 1 12 2 17
3 11 1 14 50 3 52 -18 3 -206 4 -298 2z"/>
<path d="M6682 5155 c0 -16 2 -22 5 -12 2 9 2 23 0 30 -3 6 -5 -1 -5 -18z"/>
<path d="M9925 4409 c-16 -5 -43 -11 -60 -14 -16 -2 -77 -21 -135 -40 -58 -20
-114 -38 -125 -40 -11 -2 -40 -9 -65 -15 -118 -27 -91 -26 -845 -20 -110 1
-212 1 -227 1 -36 -1 -51 -31 -53 -102 -4 -104 13 -96 -218 -103 -111 -4 -292
-9 -402 -11 -110 -2 -234 -7 -275 -10 -41 -3 -120 -8 -175 -10 -55 -2 -125 -6
-155 -10 -30 -3 -84 -7 -120 -10 -36 -3 -81 -7 -100 -10 -19 -3 -57 -7 -85
-10 -27 -2 -61 -7 -75 -9 -14 -3 -46 -8 -71 -11 -118 -14 -348 -63 -474 -100
-91 -27 -297 -95 -320 -105 -11 -5 -58 -22 -105 -38 -231 -82 -296 -104 -305
-106 -5 -1 -48 -15 -95 -30 -47 -15 -95 -30 -107 -32 -12 -2 -34 -9 -48 -14
-14 -5 -25 -7 -25 -5 0 2 -11 0 -26 -5 -14 -6 -39 -12 -57 -15 -18 -3 -39 -8
-47 -10 -8 -2 -31 -7 -50 -10 -19 -3 -42 -8 -51 -11 -9 -2 -36 -7 -60 -9 -24
-2 -78 -8 -119 -13 -79 -9 -551 -9 -566 0 -5 3 -52 9 -104 12 -52 4 -108 9
-125 11 -16 3 -57 7 -90 10 -33 3 -78 7 -100 10 -22 3 -61 7 -87 9 l-47 4 21
-36 c24 -44 152 -177 190 -197 14 -8 32 -20 40 -28 12 -12 134 -87 223 -138
66 -37 313 -159 322 -159 4 0 25 -9 46 -20 20 -11 39 -20 42 -20 7 -1 22 -6
90 -30 33 -11 67 -23 75 -25 8 -2 31 -9 50 -15 19 -7 51 -16 70 -20 19 -5 53
-14 75 -20 72 -19 230 -48 310 -55 28 -3 75 -9 105 -14 67 -11 602 -12 685 -1
33 4 88 11 121 14 34 3 72 7 85 10 13 3 44 7 69 10 57 7 179 29 300 56 30 7
71 15 90 20 36 8 119 30 270 73 153 44 466 155 625 222 63 27 90 38 95 40 3 1
22 9 42 18 21 10 39 17 42 17 4 0 124 54 221 100 22 10 72 33 110 50 39 18
111 52 161 76 50 24 95 44 100 44 5 0 9 -134 9 -314 l-1 -313 -44 -44 c-56
-55 -134 -120 -225 -187 -38 -29 -79 -59 -90 -67 -36 -28 -92 -69 -156 -115
-146 -104 -258 -199 -361 -304 l-68 -70 29 -13 c16 -8 74 -61 129 -119 56 -57
112 -109 125 -115 25 -12 27 -10 152 93 219 182 610 480 592 451 -4 -6 -2 -24
4 -40 6 -15 12 -37 14 -48 7 -44 74 -250 103 -315 56 -129 95 -213 102 -220 3
-3 12 -18 20 -35 62 -125 189 -310 324 -474 84 -101 322 -342 426 -430 41 -35
77 -67 80 -70 3 -4 28 -24 55 -46 28 -21 55 -44 60 -50 6 -6 30 -26 55 -45 25
-19 47 -37 50 -40 3 -3 25 -21 50 -40 25 -19 47 -37 50 -40 3 -3 23 -19 45
-36 33 -24 47 -29 77 -24 21 3 46 12 55 20 10 8 34 26 53 40 19 13 37 27 40
30 3 3 21 17 40 30 19 13 37 27 40 31 3 4 26 22 51 42 26 19 57 44 70 55 172
145 255 221 369 335 166 167 171 173 251 272 35 44 66 82 69 85 16 15 155 229
207 320 82 142 174 348 218 485 22 69 54 179 57 198 3 15 8 13 38 -13 19 -16
38 -30 42 -30 4 0 14 -8 24 -17 10 -10 27 -25 39 -33 13 -8 47 -35 76 -59 118
-95 133 -107 168 -137 20 -16 48 -39 62 -50 15 -10 60 -44 100 -75 41 -31 100
-74 133 -95 l59 -39 16 25 c8 14 66 75 128 136 74 73 113 119 113 133 0 11 -3
21 -7 21 -5 0 -21 13 -38 28 -16 15 -52 45 -80 67 -27 22 -56 45 -63 52 -7 7
-26 20 -42 30 -17 9 -30 21 -30 25 0 4 -13 14 -29 23 -16 8 -35 20 -43 27 -7
8 -47 39 -88 70 -158 118 -219 166 -305 238 -134 112 -214 190 -209 203 5 13
9 93 20 399 7 194 7 196 28 188 12 -4 101 -47 199 -94 98 -47 180 -86 182 -86
3 0 43 -18 90 -40 47 -22 87 -40 90 -40 2 0 28 -11 57 -24 29 -13 98 -42 153
-64 55 -23 114 -46 130 -53 17 -7 32 -13 35 -13 3 -1 19 -6 35 -13 52 -20 70
-26 80 -29 6 -1 42 -14 80 -29 39 -14 77 -28 85 -30 8 -2 51 -14 95 -28 175
-54 272 -79 440 -117 137 -31 304 -58 405 -67 30 -2 80 -8 110 -12 71 -11 638
-12 710 -1 30 5 78 11 105 14 123 14 246 36 355 65 218 57 276 76 420 138 132
56 427 222 450 252 3 4 21 18 40 31 72 49 300 257 300 273 0 5 -77 1 -135 -8
-22 -3 -71 -8 -110 -10 -38 -3 -77 -7 -85 -10 -8 -2 -60 -7 -115 -10 -55 -4
-104 -9 -109 -13 -16 -9 -536 -11 -596 -1 -30 5 -77 11 -104 14 -27 3 -52 8
-55 9 -3 2 -24 7 -46 10 -22 4 -69 14 -105 22 -36 9 -72 17 -80 19 -8 2 -53
15 -100 29 -47 15 -92 28 -100 30 -8 3 -35 12 -60 21 -25 9 -52 18 -60 20 -14
4 -176 61 -300 107 -112 41 -413 138 -443 143 -18 3 -43 10 -57 15 -23 8 -155
38 -205 45 -11 2 -65 11 -120 20 -55 9 -120 18 -145 21 -25 2 -56 6 -70 9 -14
3 -61 7 -105 10 -44 3 -96 7 -115 10 -19 3 -93 8 -165 10 -71 2 -168 7 -215
10 -47 3 -211 8 -365 10 -154 2 -331 7 -392 11 l-113 6 0 42 c-1 62 -16 126
-33 143 -17 17 -84 18 -698 9 -316 -5 -327 -4 -514 63 -171 61 -247 79 -336
78 -46 0 -97 -4 -114 -8z m160 -81 c16 -5 39 -11 50 -12 11 -2 47 -13 80 -26
126 -46 301 -101 340 -107 22 -3 58 -8 80 -12 53 -9 277 -7 445 4 119 7 250
10 388 6 l42 -1 0 -210 0 -210 -1499 0 -1499 0 2 208 1 207 45 5 c61 7 224 5
390 -5 182 -11 364 -13 425 -3 28 4 64 10 80 12 34 6 148 47 215 78 55 25 110
46 170 63 51 15 199 17 245 3z m1424 -1390 c-2 -98 -6 -133 -29 -283 -16 -101
-28 -161 -70 -340 -12 -49 -26 -110 -31 -135 -6 -25 -15 -62 -20 -82 l-10 -38
-1328 0 -1328 0 -22 63 c-12 34 -26 71 -31 82 -11 28 -25 72 -40 125 -7 25
-16 56 -20 70 -4 14 -13 52 -20 85 -6 33 -16 80 -22 105 -5 25 -12 134 -15
242 l-6 198 1494 3 c822 1 1495 3 1497 5 1 1 2 -44 1 -100z m-631 -1638 c-108
-125 -406 -413 -518 -500 -25 -19 -47 -37 -50 -40 -3 -3 -21 -17 -40 -30 -19
-14 -39 -28 -45 -32 -57 -45 -89 -68 -96 -68 -4 0 -14 -6 -21 -13 -7 -6 -32
-22 -55 -35 l-42 -22 -38 21 c-50 28 -234 150 -251 166 -8 7 -30 26 -50 41
-37 27 -85 70 -196 172 -88 82 -357 352 -354 356 2 1 78 6 168 10 91 3 167 8
170 11 3 3 330 3 726 1 l722 -3 -30 -35z"/>
<path d="M8881 2785 c-24 -62 -45 -110 -52 -119 -4 -5 -42 4 -84 19 -42 15
-78 25 -81 23 -2 -2 21 -38 51 -80 30 -42 55 -81 55 -88 0 -6 -27 -47 -60 -91
-34 -43 -58 -79 -56 -79 11 0 141 53 154 63 17 13 16 14 55 -85 l33 -87 34 89
c18 50 35 90 36 90 2 0 38 -16 80 -35 41 -19 78 -35 81 -35 5 0 -21 43 -39 65
-5 5 -22 31 -39 57 l-31 48 43 62 c24 35 52 73 63 86 16 18 17 22 4 22 -9 0
-36 -8 -60 -19 -24 -10 -57 -21 -74 -25 -29 -6 -30 -5 -65 71 l-36 78 -12 -30z"/>
<path d="M9610 2763 c-11 -26 -23 -57 -26 -70 -4 -13 -10 -25 -14 -28 -9 -5
-117 27 -150 45 -34 18 -24 -6 35 -85 30 -40 55 -78 55 -84 0 -6 -27 -46 -59
-88 -33 -43 -58 -79 -56 -81 1 -2 41 12 88 31 l86 35 33 -90 c28 -77 34 -86
42 -66 4 13 12 32 16 43 5 11 16 41 26 68 9 26 18 47 20 47 2 0 38 -16 80 -35
42 -20 78 -34 80 -32 2 1 -22 39 -52 84 l-56 81 18 28 c10 16 21 31 24 34 4 4
48 67 72 106 4 6 -30 -2 -75 -18 -83 -28 -107 -30 -107 -5 0 7 -10 33 -22 58
-11 24 -21 50 -21 57 0 26 -17 10 -37 -35z"/>
<path d="M10362 2798 c-7 -7 -12 -17 -12 -24 0 -11 -37 -104 -44 -112 -2 -1
-37 9 -79 23 -92 30 -108 31 -79 5 12 -12 22 -24 22 -29 0 -4 8 -16 18 -27 26
-30 62 -82 62 -91 0 -4 -27 -44 -60 -87 -33 -44 -60 -81 -60 -83 0 -3 28 6 65
22 69 30 108 45 110 43 2 -4 41 -103 55 -143 13 -35 17 -31 50 65 12 36 26 69
31 74 4 5 28 -1 56 -14 26 -13 63 -29 81 -37 39 -16 41 -22 -32 86 -36 52 -47
77 -40 86 63 91 104 154 104 158 0 3 -37 -8 -82 -24 -44 -17 -84 -26 -88 -22
-4 4 -17 35 -30 68 -28 72 -33 78 -48 63z"/>
<path d="M11094 2739 c-15 -38 -31 -72 -35 -74 -3 -3 -39 7 -80 20 -40 14 -76
25 -81 25 -5 0 12 -28 37 -62 25 -35 53 -73 61 -85 15 -21 12 -26 -50 -104
-36 -46 -63 -85 -61 -87 2 -2 21 4 42 13 21 9 47 21 58 26 64 28 74 29 85 9 6
-11 8 -20 4 -20 -3 0 -2 -6 3 -12 6 -7 18 -37 28 -66 9 -30 21 -50 25 -45 5 4
20 43 35 86 28 79 33 84 63 68 9 -5 40 -19 67 -32 28 -13 54 -25 58 -27 13 -7
-11 36 -60 105 l-44 62 42 63 c24 35 49 69 56 76 14 15 17 32 6 32 -5 0 -41
-11 -81 -25 -41 -14 -75 -25 -77 -25 -2 0 -9 16 -15 36 -7 20 -18 48 -26 62
-8 15 -14 33 -14 40 0 32 -21 6 -46 -59z"/>
</g>
</svg>
